<?xml version="1.0" encoding="UTF-8"?>
<!DOCTYPE svg PUBLIC "-//W3C//DTD SVG 1.1//EN" "http://www.w3.org/Graphics/SVG/1.1/DTD/svg11.dtd">
<svg xmlns="http://www.w3.org/2000/svg" version="1.1" width="128px" height="128px" style="shape-rendering:geometricPrecision; text-rendering:geometricPrecision; image-rendering:optimizeQuality; fill-rule:evenodd; clip-rule:evenodd" xmlns:xlink="http://www.w3.org/1999/xlink">
<g><path style="opacity:1" fill="#e5f3fb" d="M -0.5,-0.5 C 2.83333,-0.5 6.16667,-0.5 9.5,-0.5C 9.5,2.16667 9.5,4.83333 9.5,7.5C 1.5,8.16667 1.5,8.83333 9.5,9.5C 10.4162,27.4795 10.7496,45.4795 10.5,63.5C 8.16667,63.5 5.83333,63.5 3.5,63.5C 3.07299,60.2123 3.73966,57.2123 5.5,54.5C 4.79973,54.2129 4.13306,53.8795 3.5,53.5C 3.51437,44.7759 3.51437,36.1092 3.5,27.5C 5.28801,27.7852 6.95467,27.4519 8.5,26.5C 7.11252,26.1928 5.44585,26.1928 3.5,26.5C 3.16667,15.8333 2.83333,15.8333 2.5,26.5C 1.5,26.5 0.5,26.5 -0.5,26.5C -0.5,17.5 -0.5,8.5 -0.5,-0.5 Z"/></g>
<g><path style="opacity:1" fill="#e3f1f9" d="M 67.5,-0.5 C 76.5,-0.5 85.5,-0.5 94.5,-0.5C 94.5,5.5 94.5,11.5 94.5,17.5C 110.822,18.5542 105.488,18.5542 78.5,17.5C 79.9368,11.8811 77.9368,8.54772 72.5,7.5C 71.9094,6.84851 71.2427,6.18185 70.5,5.5C 71.4847,3.90167 71.6514,2.23501 71,0.5C 69.2435,1.98496 68.0768,1.65163 67.5,-0.5 Z"/></g>
<g><path style="opacity:1" fill="#e0f2fc" d="M 94.5,-0.5 C 99.5,-0.5 104.5,-0.5 109.5,-0.5C 111.265,0.461384 113.265,0.794717 115.5,0.5C 115.5,2.83333 115.5,5.16667 115.5,7.5C 107.5,8.16667 107.5,8.83333 115.5,9.5C 116.346,27.6217 116.68,45.955 116.5,64.5C 116.5,74.8333 116.5,85.1667 116.5,95.5C 116.357,97.2624 116.691,98.9291 117.5,100.5C 117.043,101.298 116.376,101.631 115.5,101.5C 115.5,74.5 115.5,47.5 115.5,20.5C 102.833,20.5 90.1667,20.5 77.5,20.5C 77.5,20.1667 77.5,19.8333 77.5,19.5C 77.8333,18.8333 78.1667,18.1667 78.5,17.5C 105.488,18.5542 110.822,18.5542 94.5,17.5C 94.5,11.5 94.5,5.5 94.5,-0.5 Z"/></g>
<g><path style="opacity:1" fill="#d8ecf8" d="M 9.5,-0.5 C 12.1667,-0.5 14.8333,-0.5 17.5,-0.5C 17.5,2.83333 17.5,6.16667 17.5,9.5C 15.5,9.5 13.5,9.5 11.5,9.5C 11.3367,11.8568 11.5034,14.1902 12,16.5C 12.3333,16.1667 12.6667,15.8333 13,15.5C 16.4935,17.377 20.3268,18.0436 24.5,17.5C 31.9818,18.492 39.6484,18.8254 47.5,18.5C 47.3342,13.8215 47.5008,9.1548 48,4.5C 49.3528,5.70418 51.0194,6.37085 53,6.5C 57.4786,5.8356 61.9786,5.50227 66.5,5.5C 66.5499,3.40993 65.5499,2.0766 63.5,1.5C 62.2638,2.24585 60.9305,2.57918 59.5,2.5C 59.5,1.5 59.5,0.5 59.5,-0.5C 62.1667,-0.5 64.8333,-0.5 67.5,-0.5C 68.0768,1.65163 69.2435,1.98496 71,0.5C 71.6514,2.23501 71.4847,3.90167 70.5,5.5C 71.2427,6.18185 71.9094,6.84851 72.5,7.5C 65.4921,7.33371 58.4921,7.50038 51.5,8C 48.3507,11.3413 47.684,15.1746 49.5,19.5C 37.011,20.4954 24.3443,20.8287 11.5,20.5C 11.5,47.5 11.5,74.5 11.5,101.5C 11.1667,101.5 10.8333,101.5 10.5,101.5C 10.5,89.1667 10.5,76.8333 10.5,64.5C 10.5,64.1667 10.5,63.8333 10.5,63.5C 10.7496,45.4795 10.4162,27.4795 9.5,9.5C 1.5,8.83333 1.5,8.16667 9.5,7.5C 9.5,4.83333 9.5,2.16667 9.5,-0.5 Z"/></g>
<g><path style="opacity:1" fill="#e3f0f8" d="M 40.5,-0.5 C 46.8333,-0.5 53.1667,-0.5 59.5,-0.5C 59.5,0.5 59.5,1.5 59.5,2.5C 60.9305,2.57918 62.2638,2.24585 63.5,1.5C 65.5499,2.0766 66.5499,3.40993 66.5,5.5C 61.9786,5.50227 57.4786,5.8356 53,6.5C 51.0194,6.37085 49.3528,5.70418 48,4.5C 47.5008,9.1548 47.3342,13.8215 47.5,18.5C 39.6484,18.8254 31.9818,18.492 24.5,17.5C 29.5111,17.6659 34.5111,17.4993 39.5,17C 40.435,14.6194 40.7683,12.1194 40.5,9.5C 32.6525,8.25128 32.6525,7.58461 40.5,7.5C 40.5,4.83333 40.5,2.16667 40.5,-0.5 Z"/></g>
<g><path style="opacity:1" fill="#e4f2fb" d="M 17.5,-0.5 C 25.1667,-0.5 32.8333,-0.5 40.5,-0.5C 40.5,2.16667 40.5,4.83333 40.5,7.5C 32.6525,7.58461 32.6525,8.25128 40.5,9.5C 40.7683,12.1194 40.435,14.6194 39.5,17C 34.5111,17.4993 29.5111,17.6659 24.5,17.5C 20.3268,18.0436 16.4935,17.377 13,15.5C 12.6667,15.8333 12.3333,16.1667 12,16.5C 11.5034,14.1902 11.3367,11.8568 11.5,9.5C 13.5,9.5 15.5,9.5 17.5,9.5C 17.5,6.16667 17.5,2.83333 17.5,-0.5 Z"/></g>
<g><path style="opacity:1" fill="#1c567d" d="M 72.5,7.5 C 77.9368,8.54772 79.9368,11.8811 78.5,17.5C 78.1667,18.1667 77.8333,18.8333 77.5,19.5C 68.7652,21.4279 59.7652,22.0946 50.5,21.5C 50.6716,20.5084 50.3382,19.8417 49.5,19.5C 47.684,15.1746 48.3507,11.3413 51.5,8C 58.4921,7.50038 65.4921,7.33371 72.5,7.5 Z"/></g>
<g><path style="opacity:1" fill="#74acca" d="M 52.5,11.5 C 55.0241,10.1997 57.6908,10.1997 60.5,11.5C 60.3764,12.1067 60.0431,12.44 59.5,12.5C 57.3926,11.5318 55.0593,11.1984 52.5,11.5 Z"/></g>
<g><path style="opacity:1" fill="#bbeefa" d="M 62.5,13.5 C 64.4646,13.9483 64.7979,14.9483 63.5,16.5C 62.6143,15.675 62.281,14.675 62.5,13.5 Z"/></g>
<g><path style="opacity:1" fill="#e0f2f9" d="M 66.5,12.5 C 69.2869,11.5233 72.2869,11.19 75.5,11.5C 75.6621,13.5273 75.4955,15.5273 75,17.5C 72.2628,18.6105 69.4294,18.7772 66.5,18C 67.807,16.0565 67.807,14.2232 66.5,12.5 Z"/></g>
<g><path style="opacity:1" fill="#d1ebf3" d="M 52.5,11.5 C 55.0593,11.1984 57.3926,11.5318 59.5,12.5C 59.5,14.5 59.5,16.5 59.5,18.5C 56.8127,18.6641 54.146,18.4974 51.5,18C 49.9797,15.4485 50.3131,13.2818 52.5,11.5 Z"/></g>
<g><path style="opacity:1" fill="#427a9e" d="M 77.5,19.5 C 77.5,19.8333 77.5,20.1667 77.5,20.5C 89.5,21.1667 101.5,21.8333 113.5,22.5C 113.167,22.5 112.833,22.5 112.5,22.5C 90.8333,22.5 69.1667,22.5 47.5,22.5C 36.1667,22.5 24.8333,22.5 13.5,22.5C 25.6554,21.5048 37.9887,21.1714 50.5,21.5C 59.7652,22.0946 68.7652,21.4279 77.5,19.5 Z"/></g>
<g><path style="opacity:1" fill="#b2dbf6" d="M 47.5,22.5 C 69.1667,22.5 90.8333,22.5 112.5,22.5C 112.5,25.5 112.5,28.5 112.5,31.5C 111.566,32.5676 111.232,33.901 111.5,35.5C 110.209,35.2627 109.209,35.596 108.5,36.5C 108.167,36.5 107.833,36.5 107.5,36.5C 107.5,33.8333 107.5,31.1667 107.5,28.5C 78.1667,28.5 48.8333,28.5 19.5,28.5C 19.5,31.1667 19.5,33.8333 19.5,36.5C 19.5,55.8333 19.5,75.1667 19.5,94.5C 18.5043,81.0102 18.171,67.3435 18.5,53.5C 18.5,45.1667 18.5,36.8333 18.5,28.5C 17.5,28.5 16.5,28.5 15.5,28.5C 15.2308,26.5714 15.7308,24.9047 17,23.5C 23.7108,23.7228 30.5441,24.0562 37.5,24.5C 41.2386,24.4864 44.572,23.8197 47.5,22.5 Z"/></g>
<g><path style="opacity:1" fill="#3d7295" d="M 77.5,20.5 C 90.1667,20.5 102.833,20.5 115.5,20.5C 115.5,47.5 115.5,74.5 115.5,101.5C 115.5,101.833 115.5,102.167 115.5,102.5C 115.167,102.5 114.833,102.5 114.5,102.5C 114.672,101.508 114.338,100.842 113.5,100.5C 113.5,74.5 113.5,48.5 113.5,22.5C 101.5,21.8333 89.5,21.1667 77.5,20.5 Z"/></g>
<g><path style="opacity:1" fill="#155e98" d="M 107.5,36.5 C 99.1667,36.5 90.8333,36.5 82.5,36.5C 81.8333,36.5 81.1667,36.5 80.5,36.5C 60.8333,36.5 41.1667,36.5 21.5,36.5C 20.8333,36.5 20.1667,36.5 19.5,36.5C 19.5,33.8333 19.5,31.1667 19.5,28.5C 48.8333,28.5 78.1667,28.5 107.5,28.5C 107.5,31.1667 107.5,33.8333 107.5,36.5 Z"/></g>
<g><path style="opacity:1" fill="#0f92e6" d="M 67.5,30.5 C 63.7773,31.9967 59.7773,32.6633 55.5,32.5C 44.4931,31.3794 33.4931,31.3794 22.5,32.5C 22.8869,33.7199 23.7202,34.3865 25,34.5C 51.7512,34.4584 78.5846,34.4584 105.5,34.5C 105.5,33.5 105.5,32.5 105.5,31.5C 93.6432,32.9091 81.9765,32.5758 70.5,30.5C 82.5,30.5 94.5,30.5 106.5,30.5C 106.5,32.1667 106.5,33.8333 106.5,35.5C 77.8333,35.5 49.1667,35.5 20.5,35.5C 20.5,33.8333 20.5,32.1667 20.5,30.5C 36.1667,30.5 51.8333,30.5 67.5,30.5 Z"/></g>
<g><path style="opacity:1" fill="#039bfd" d="M 67.5,30.5 C 68.5,30.5 69.5,30.5 70.5,30.5C 81.9765,32.5758 93.6432,32.9091 105.5,31.5C 105.5,32.5 105.5,33.5 105.5,34.5C 78.5846,34.4584 51.7512,34.4584 25,34.5C 23.7202,34.3865 22.8869,33.7199 22.5,32.5C 33.4931,31.3794 44.4931,31.3794 55.5,32.5C 59.7773,32.6633 63.7773,31.9967 67.5,30.5 Z"/></g>
<g><path style="opacity:1" fill="#e6f3fb" d="M 127.5,9.5 C 127.5,39.5 127.5,69.5 127.5,99.5C 126.5,99.5 125.5,99.5 124.5,99.5C 124.667,76.8309 124.5,54.1642 124,31.5C 123.878,33.437 123.045,34.7703 121.5,35.5C 120.167,35.5 118.833,35.5 117.5,35.5C 118.077,26.7963 118.077,18.1296 117.5,9.5C 119.5,9.5 121.5,9.5 123.5,9.5C 124.092,15.6309 123.425,21.4642 121.5,27C 125.617,28.109 126.617,26.609 124.5,22.5C 124.649,20.6803 125.316,19.1803 126.5,18C 124.821,15.4355 124.154,12.6021 124.5,9.5C 125.5,9.5 126.5,9.5 127.5,9.5 Z"/></g>
<g><path style="opacity:1" fill="#e4acf6" d="M 107.5,36.5 C 107.833,36.5 108.167,36.5 108.5,36.5C 108.823,42.69 108.49,48.69 107.5,54.5C 107.5,54.8333 107.5,55.1667 107.5,55.5C 99.1667,55.5 90.8333,55.5 82.5,55.5C 82.5,55.1667 82.5,54.8333 82.5,54.5C 83.4889,49.0247 83.8222,43.358 83.5,37.5C 91.6841,37.8257 99.6841,37.4924 107.5,36.5 Z"/></g>
<g><path style="opacity:1" fill="#b6e4fb" d="M 91.5,40.5 C 89.4159,42.7565 89.0825,45.2565 90.5,48C 89.2899,49.0391 88.2899,50.2058 87.5,51.5C 86.5184,48.0381 86.185,44.3714 86.5,40.5C 88.1667,40.5 89.8333,40.5 91.5,40.5 Z"/></g>
<g><path style="opacity:1" fill="#b9ddf8" d="M 96.5,40.5 C 98.8333,40.5 101.167,40.5 103.5,40.5C 103.216,42.4147 103.549,44.0813 104.5,45.5C 104.5,47.5 104.5,49.5 104.5,51.5C 103.432,52.4345 102.099,52.7678 100.5,52.5C 100.315,50.8042 99.4813,49.4709 98,48.5C 97.7276,45.7462 97.2276,43.0795 96.5,40.5 Z"/></g>
<g><path style="opacity:1" fill="#8f7ecb" d="M 82.5,36.5 C 90.8333,36.5 99.1667,36.5 107.5,36.5C 99.6841,37.4924 91.6841,37.8257 83.5,37.5C 83.8222,43.358 83.4889,49.0247 82.5,54.5C 82.5,48.5 82.5,42.5 82.5,36.5 Z"/></g>
<g><path style="opacity:1" fill="#b0def7" d="M 13.5,22.5 C 24.8333,22.5 36.1667,22.5 47.5,22.5C 44.572,23.8197 41.2386,24.4864 37.5,24.5C 30.5441,24.0562 23.7108,23.7228 17,23.5C 15.7308,24.9047 15.2308,26.5714 15.5,28.5C 16.5,28.5 17.5,28.5 18.5,28.5C 18.5,36.8333 18.5,45.1667 18.5,53.5C 17.5,53.5 16.5,53.5 15.5,53.5C 15.4486,51.4305 16.1153,49.5971 17.5,48C 17.3699,46.9412 16.8699,46.1079 16,45.5C 15.6667,40.8333 15.3333,36.1667 15,31.5C 14.1777,53.8763 14.3444,76.2097 15.5,98.5C 18.1667,98.8333 20.8333,99.1667 23.5,99.5C 31.9487,99.4712 40.1154,98.4712 48,96.5C 49.6399,100.278 50.8066,100.278 51.5,96.5C 53.1667,96.5 54.8333,96.5 56.5,96.5C 56.5674,97.9587 56.2341,99.2921 55.5,100.5C 41.1667,100.5 26.8333,100.5 12.5,100.5C 12.1689,74.328 12.5022,48.328 13.5,22.5 Z"/></g>
<g><path style="opacity:1" fill="#e1f1f9" d="M 3.5,53.5 C 2.83387,56.6893 2.1672,60.0227 1.5,63.5C 0.833315,74.3258 0.166648,84.9924 -0.5,95.5C -0.5,72.5 -0.5,49.5 -0.5,26.5C 0.5,26.5 1.5,26.5 2.5,26.5C 2.83333,15.8333 3.16667,15.8333 3.5,26.5C 5.44585,26.1928 7.11252,26.1928 8.5,26.5C 6.95467,27.4519 5.28801,27.7852 3.5,27.5C 3.51437,36.1092 3.51437,44.7759 3.5,53.5 Z"/></g>
<g><path style="opacity:1" fill="#d4ccfb" d="M 104.5,45.5 C 103.549,44.0813 103.216,42.4147 103.5,40.5C 101.167,40.5 98.8333,40.5 96.5,40.5C 94.8333,40.5 93.1667,40.5 91.5,40.5C 89.8333,40.5 88.1667,40.5 86.5,40.5C 86.185,44.3714 86.5184,48.0381 87.5,51.5C 87.5,51.8333 87.5,52.1667 87.5,52.5C 86.8333,52.5 86.1667,52.5 85.5,52.5C 85.5,48.1667 85.5,43.8333 85.5,39.5C 91.8333,39.5 98.1667,39.5 104.5,39.5C 104.5,41.5 104.5,43.5 104.5,45.5 Z"/></g>
<g><path style="opacity:1" fill="#255985" d="M 91.5,40.5 C 93.1667,40.5 94.8333,40.5 96.5,40.5C 97.2276,43.0795 97.7276,45.7462 98,48.5C 99.4813,49.4709 100.315,50.8042 100.5,52.5C 99.1667,52.5 97.8333,52.5 96.5,52.5C 96.2089,51.3509 95.3756,50.6842 94,50.5C 92.6244,50.6842 91.7911,51.3509 91.5,52.5C 90.1667,52.5 88.8333,52.5 87.5,52.5C 87.5,52.1667 87.5,51.8333 87.5,51.5C 88.2899,50.2058 89.2899,49.0391 90.5,48C 89.0825,45.2565 89.4159,42.7565 91.5,40.5 Z"/></g>
<g><path style="opacity:1" fill="#a1cdf3" d="M 92.5,43.5 C 95.6741,43.9522 96.0075,44.9522 93.5,46.5C 92.6143,45.675 92.281,44.675 92.5,43.5 Z"/></g>
<g><path style="opacity:1" fill="#d0cdf8" d="M 96.5,52.5 C 94.8333,52.5 93.1667,52.5 91.5,52.5C 91.7911,51.3509 92.6244,50.6842 94,50.5C 95.3756,50.6842 96.2089,51.3509 96.5,52.5 Z"/></g>
<g><path style="opacity:1" fill="#f698fb" d="M 107.5,54.5 C 99.8045,54.8308 92.1378,54.4975 84.5,53.5C 84.6236,52.8933 84.9569,52.56 85.5,52.5C 86.1667,52.5 86.8333,52.5 87.5,52.5C 88.8333,52.5 90.1667,52.5 91.5,52.5C 93.1667,52.5 94.8333,52.5 96.5,52.5C 97.8333,52.5 99.1667,52.5 100.5,52.5C 102.099,52.7678 103.432,52.4345 104.5,51.5C 105.166,48.6417 105.833,45.6417 106.5,42.5C 107.491,46.4454 107.824,50.4454 107.5,54.5 Z"/></g>
<g><path style="opacity:1" fill="#e3f1f9" d="M 109.5,-0.5 C 115.5,-0.5 121.5,-0.5 127.5,-0.5C 127.5,2.83333 127.5,6.16667 127.5,9.5C 126.5,9.5 125.5,9.5 124.5,9.5C 124.154,12.6021 124.821,15.4355 126.5,18C 125.316,19.1803 124.649,20.6803 124.5,22.5C 126.617,26.609 125.617,28.109 121.5,27C 123.425,21.4642 124.092,15.6309 123.5,9.5C 121.5,9.5 119.5,9.5 117.5,9.5C 118.077,18.1296 118.077,26.7963 117.5,35.5C 118.833,35.5 120.167,35.5 121.5,35.5C 122.412,37.1773 123.079,39.0107 123.5,41C 123.416,51.6498 123.083,62.1498 122.5,72.5C 120.833,72.5 119.167,72.5 117.5,72.5C 117.806,69.6146 117.473,66.9479 116.5,64.5C 116.68,45.955 116.346,27.6217 115.5,9.5C 107.5,8.83333 107.5,8.16667 115.5,7.5C 115.5,5.16667 115.5,2.83333 115.5,0.5C 113.265,0.794717 111.265,0.461384 109.5,-0.5 Z"/></g>
<g><path style="opacity:1" fill="#50d48a" d="M 107.5,56.5 C 107.5,62.8333 107.5,69.1667 107.5,75.5C 99.5,75.5 91.5,75.5 83.5,75.5C 83.5,69.1667 83.5,62.8333 83.5,56.5C 91.5,56.5 99.5,56.5 107.5,56.5 Z"/></g>
<g><path style="opacity:1" fill="#81dcc7" d="M 85.5,59.5 C 91.979,58.5093 98.6457,58.176 105.5,58.5C 105.818,63.0323 105.485,67.3656 104.5,71.5C 104.5,67.5 104.5,63.5 104.5,59.5C 102.5,59.5 100.5,59.5 98.5,59.5C 97.1667,59.5 95.8333,59.5 94.5,59.5C 91.5,59.5 88.5,59.5 85.5,59.5 Z"/></g>
<g><path style="opacity:1" fill="#b1e4f7" d="M 98.5,59.5 C 100.5,59.5 102.5,59.5 104.5,59.5C 104.5,63.5 104.5,67.5 104.5,71.5C 104.167,71.5 103.833,71.5 103.5,71.5C 102.878,70.3734 102.045,69.3734 101,68.5C 100.943,65.1888 100.11,62.1888 98.5,59.5 Z"/></g>
<g><path style="opacity:1" fill="#b7e1f7" d="M 85.5,59.5 C 88.5,59.5 91.5,59.5 94.5,59.5C 93.2589,63.58 91.9256,67.58 90.5,71.5C 88.8333,71.5 87.1667,71.5 85.5,71.5C 85.5,67.5 85.5,63.5 85.5,59.5 Z"/></g>
<g><path style="opacity:1" fill="#4fb59d" d="M 82.5,55.5 C 90.8333,55.5 99.1667,55.5 107.5,55.5C 107.5,55.8333 107.5,56.1667 107.5,56.5C 99.5,56.5 91.5,56.5 83.5,56.5C 83.5,62.8333 83.5,69.1667 83.5,75.5C 83.1667,75.5 82.8333,75.5 82.5,75.5C 82.5,68.8333 82.5,62.1667 82.5,55.5 Z"/></g>
<g><path style="opacity:1" fill="#195681" d="M 94.5,59.5 C 95.8333,59.5 97.1667,59.5 98.5,59.5C 100.11,62.1888 100.943,65.1888 101,68.5C 102.045,69.3734 102.878,70.3734 103.5,71.5C 102.167,71.5 100.833,71.5 99.5,71.5C 97.8333,68.8333 96.1667,68.8333 94.5,71.5C 93.1667,71.5 91.8333,71.5 90.5,71.5C 91.9256,67.58 93.2589,63.58 94.5,59.5 Z"/></g>
<g><path style="opacity:1" fill="#addff9" d="M 95.5,63.5 C 97.4646,63.9483 97.7979,64.9483 96.5,66.5C 95.6143,65.675 95.281,64.675 95.5,63.5 Z"/></g>
<g><path style="opacity:1" fill="#a2ddeb" d="M 99.5,71.5 C 97.8333,71.5 96.1667,71.5 94.5,71.5C 96.1667,68.8333 97.8333,68.8333 99.5,71.5 Z"/></g>
<g><path style="opacity:1" fill="#bfe1ed" d="M 112.5,31.5 C 112.667,52.8359 112.5,74.1693 112,95.5C 110.169,87.5444 110.003,79.5444 111.5,71.5C 110.5,71.5 109.5,71.5 108.5,71.5C 108.826,79.6841 108.492,87.6841 107.5,95.5C 107.5,94.5 107.5,93.5 107.5,92.5C 107.5,86.8333 107.5,81.1667 107.5,75.5C 107.5,69.1667 107.5,62.8333 107.5,56.5C 107.5,56.1667 107.5,55.8333 107.5,55.5C 107.5,55.1667 107.5,54.8333 107.5,54.5C 108.49,48.69 108.823,42.69 108.5,36.5C 109.209,35.596 110.209,35.2627 111.5,35.5C 111.232,33.901 111.566,32.5676 112.5,31.5 Z"/></g>
<g><path style="opacity:1" fill="#e4f3fa" d="M 116.5,64.5 C 117.473,66.9479 117.806,69.6146 117.5,72.5C 119.167,72.5 120.833,72.5 122.5,72.5C 124.118,76.0276 123.785,79.3609 121.5,82.5C 122.585,83.7841 123.252,85.2841 123.5,87C 122.167,90 122.167,93 123.5,96C 123.252,97.7159 122.585,99.2159 121.5,100.5C 123.395,106.276 124.061,112.276 123.5,118.5C 121.5,118.5 119.5,118.5 117.5,118.5C 117.5,116.167 117.5,113.833 117.5,111.5C 120.734,111.763 122.068,110.263 121.5,107C 119.409,103.881 117.742,100.048 116.5,95.5C 116.5,85.1667 116.5,74.8333 116.5,64.5 Z"/></g>
<g><path style="opacity:1" fill="#bfe2f9" d="M 18.5,53.5 C 18.171,67.3435 18.5043,81.0102 19.5,94.5C 36.6714,95.1667 54.0047,95.8333 71.5,96.5C 70.6371,97.7264 70.6371,99.0597 71.5,100.5C 66.1667,100.5 60.8333,100.5 55.5,100.5C 56.2341,99.2921 56.5674,97.9587 56.5,96.5C 54.8333,96.5 53.1667,96.5 51.5,96.5C 50.8066,100.278 49.6399,100.278 48,96.5C 40.1154,98.4712 31.9487,99.4712 23.5,99.5C 20.8333,99.1667 18.1667,98.8333 15.5,98.5C 14.3444,76.2097 14.1777,53.8763 15,31.5C 15.3333,36.1667 15.6667,40.8333 16,45.5C 16.8699,46.1079 17.3699,46.9412 17.5,48C 16.1153,49.5971 15.4486,51.4305 15.5,53.5C 16.5,53.5 17.5,53.5 18.5,53.5 Z"/></g>
<g><path style="opacity:1" fill="#edcf69" d="M 104.5,78.5 C 98.31,78.1771 92.31,78.5104 86.5,79.5C 85.5184,82.9619 85.185,86.6286 85.5,90.5C 84.8333,86.8333 84.1667,83.1667 83.5,79.5C 83.5,79.1667 83.5,78.8333 83.5,78.5C 90.6291,77.2233 97.6291,77.2233 104.5,78.5 Z"/></g>
<g><path style="opacity:1" fill="#cde0ce" d="M 86.5,79.5 C 92.31,78.5104 98.31,78.1771 104.5,78.5C 104.5,82.8333 104.5,87.1667 104.5,91.5C 103.167,91.5 101.833,91.5 100.5,91.5C 100.5,91.1667 100.5,90.8333 100.5,90.5C 101.5,90.5 102.5,90.5 103.5,90.5C 103.5,86.8333 103.5,83.1667 103.5,79.5C 100.833,79.5 98.1667,79.5 95.5,79.5C 94.1667,79.5 92.8333,79.5 91.5,79.5C 89.8333,79.5 88.1667,79.5 86.5,79.5 Z"/></g>
<g><path style="opacity:1" fill="#0a4d79" d="M 19.5,36.5 C 20.1667,36.5 20.8333,36.5 21.5,36.5C 21.5,36.8333 21.5,37.1667 21.5,37.5C 21.5,55.5 21.5,73.5 21.5,91.5C 40.8333,91.5 60.1667,91.5 79.5,91.5C 80.4968,73.3409 80.8302,55.0076 80.5,36.5C 81.1667,36.5 81.8333,36.5 82.5,36.5C 82.5,42.5 82.5,48.5 82.5,54.5C 82.5,54.8333 82.5,55.1667 82.5,55.5C 82.5,62.1667 82.5,68.8333 82.5,75.5C 82.5,81.8333 82.5,88.1667 82.5,94.5C 61.5,94.5 40.5,94.5 19.5,94.5C 19.5,75.1667 19.5,55.8333 19.5,36.5 Z"/></g>
<g><path style="opacity:1" fill="#8fc1e3" d="M 21.5,37.5 C 21.8333,37.5 22.1667,37.5 22.5,37.5C 22.5,42.1667 22.5,46.8333 22.5,51.5C 22.5,64.5 22.5,77.5 22.5,90.5C 41.5,90.5 60.5,90.5 79.5,90.5C 79.5,90.8333 79.5,91.1667 79.5,91.5C 60.1667,91.5 40.8333,91.5 21.5,91.5C 21.5,73.5 21.5,55.5 21.5,37.5 Z"/></g>
<g><path style="opacity:1" fill="#bbe1fd" d="M 78.5,79.5 C 78.5,82.5 78.5,85.5 78.5,88.5C 72.7711,88.2123 67.1045,88.5456 61.5,89.5C 59.4501,88.9234 58.4501,87.5901 58.5,85.5C 59.4959,85.5858 60.3292,85.2524 61,84.5C 61.7224,79.032 64.889,77.032 70.5,78.5C 70.6495,77.448 70.4828,76.448 70,75.5C 69.0862,76.6537 68.2529,76.487 67.5,75C 68.6086,74.3623 69.7753,73.8623 71,73.5C 73.4733,74.5171 75.9733,74.5171 78.5,73.5C 78.5,75.5 78.5,77.5 78.5,79.5 Z"/></g>
<g><path style="opacity:1" fill="#bde4fc" d="M 22.5,51.5 C 23.3294,59.6566 23.8294,67.9899 24,76.5C 24.6667,75.1667 25.3333,75.1667 26,76.5C 26.4828,77.448 26.6495,78.448 26.5,79.5C 29.5184,79.6646 32.5184,79.498 35.5,79C 34.2068,78.51 32.8734,78.3433 31.5,78.5C 31.5,77.5 31.5,76.5 31.5,75.5C 34.9496,74.7564 36.6162,76.0897 36.5,79.5C 37.5,79.5 38.5,79.5 39.5,79.5C 39.2436,81.7925 39.5769,83.9592 40.5,86C 46.0164,86.8174 51.3497,86.6507 56.5,85.5C 57.1667,85.5 57.8333,85.5 58.5,85.5C 58.4501,87.5901 59.4501,88.9234 61.5,89.5C 67.1045,88.5456 72.7711,88.2123 78.5,88.5C 78.5,85.5 78.5,82.5 78.5,79.5C 78.8333,79.5 79.1667,79.5 79.5,79.5C 79.5,83.1667 79.5,86.8333 79.5,90.5C 60.5,90.5 41.5,90.5 22.5,90.5C 22.5,77.5 22.5,64.5 22.5,51.5 Z"/></g>
<g><path style="opacity:1" fill="#50d493" d="M 55.5,76.5 C 56.1667,76.5 56.8333,76.5 57.5,76.5C 59.745,79.2227 60.0783,82.2227 58.5,85.5C 57.8333,85.5 57.1667,85.5 56.5,85.5C 51.5,85.5 46.5,85.5 41.5,85.5C 41.3367,83.1432 41.5034,80.8098 42,78.5C 43.0113,77.6634 44.1779,77.33 45.5,77.5C 48.9842,76.7207 52.3175,76.3874 55.5,76.5 Z"/></g>
<g><path style="opacity:1" fill="#97f4c0" d="M 44.5,80.5 C 48.226,80.1774 51.8927,80.5108 55.5,81.5C 51.65,83.9775 47.65,84.1442 43.5,82C 44.056,81.6174 44.3893,81.1174 44.5,80.5 Z"/></g>
<g><path style="opacity:1" fill="#bbe3f8" d="M 78.5,37.5 C 79.4958,51.3234 79.8291,65.3234 79.5,79.5C 79.1667,79.5 78.8333,79.5 78.5,79.5C 78.5,77.5 78.5,75.5 78.5,73.5C 75.9733,74.5171 73.4733,74.5171 71,73.5C 69.7753,73.8623 68.6086,74.3623 67.5,75C 68.2529,76.487 69.0862,76.6537 70,75.5C 70.4828,76.448 70.6495,77.448 70.5,78.5C 64.889,77.032 61.7224,79.032 61,84.5C 60.3292,85.2524 59.4959,85.5858 58.5,85.5C 60.0783,82.2227 59.745,79.2227 57.5,76.5C 56.2402,72.3479 54.2402,68.6813 51.5,65.5C 52.7348,65.2786 53.7348,64.6119 54.5,63.5C 55.1687,61.3691 55.8354,59.3691 56.5,57.5C 56.2053,59.7354 56.5386,61.7354 57.5,63.5C 57.5,64.5 57.5,65.5 57.5,66.5C 58.0798,68.7488 59.4131,70.4154 61.5,71.5C 65.3578,74.2022 69.0245,73.8688 72.5,70.5C 72.5,69.8333 72.8333,69.5 73.5,69.5C 75.9754,68.3126 76.9754,66.3126 76.5,63.5C 76.9438,58.8311 75.6105,54.8311 72.5,51.5C 74.1172,52.038 75.7839,52.3713 77.5,52.5C 77.8333,50.5 78.1667,48.5 78.5,46.5C 78.5,43.5 78.5,40.5 78.5,37.5 Z"/></g>
<g><path style="opacity:1" fill="#aff0cb" d="M 55.5,76.5 C 52.3175,76.3874 48.9842,76.7207 45.5,77.5C 46.5647,73.363 48.0647,69.363 50,65.5C 51.8466,69.1932 53.6799,72.8599 55.5,76.5 Z"/></g>
<g><path style="opacity:1" fill="#dcd899" d="M 72.5,70.5 C 69.0245,73.8688 65.3578,74.2022 61.5,71.5C 65.2148,71.577 68.8815,71.2436 72.5,70.5 Z"/></g>
<g><path style="opacity:1" fill="#dcd9b2" d="M 57.5,66.5 C 59.5869,67.5846 60.9202,69.2512 61.5,71.5C 59.4131,70.4154 58.0798,68.7488 57.5,66.5 Z"/></g>
<g><path style="opacity:1" fill="#d0d4fd" d="M 26.5,51.5 C 26.5,56.1667 26.5,60.8333 26.5,65.5C 31.1292,66.481 35.7959,66.6477 40.5,66C 41.056,65.6174 41.3893,65.1174 41.5,64.5C 41.5,63.8333 41.8333,63.5 42.5,63.5C 42.7035,65.3904 42.0368,66.8904 40.5,68C 36.4724,68.3918 32.4724,68.8918 28.5,69.5C 27.5313,68.6906 26.6979,67.6906 26,66.5C 25.1837,61.3158 25.3503,56.3158 26.5,51.5 Z"/></g>
<g><path style="opacity:1" fill="#5091b3" d="M 21.5,37.5 C 21.5,37.1667 21.5,36.8333 21.5,36.5C 41.1667,36.5 60.8333,36.5 80.5,36.5C 80.8302,55.0076 80.4968,73.3409 79.5,91.5C 79.5,91.1667 79.5,90.8333 79.5,90.5C 79.5,86.8333 79.5,83.1667 79.5,79.5C 79.8291,65.3234 79.4958,51.3234 78.5,37.5C 59.8333,37.5 41.1667,37.5 22.5,37.5C 22.1667,37.5 21.8333,37.5 21.5,37.5 Z"/></g>
<g><path style="opacity:1" fill="#ded7c3" d="M 75.5,63.5 C 75.8333,63.5 76.1667,63.5 76.5,63.5C 76.9754,66.3126 75.9754,68.3126 73.5,69.5C 74.6298,67.6854 75.2964,65.6854 75.5,63.5 Z"/></g>
<g><path style="opacity:1" fill="#71d9b1" d="M 51.5,65.5 C 54.2402,68.6813 56.2402,72.3479 57.5,76.5C 56.8333,76.5 56.1667,76.5 55.5,76.5C 53.6799,72.8599 51.8466,69.1932 50,65.5C 48.0647,69.363 46.5647,73.363 45.5,77.5C 44.1779,77.33 43.0113,77.6634 42,78.5C 41.5034,80.8098 41.3367,83.1432 41.5,85.5C 46.5,85.5 51.5,85.5 56.5,85.5C 51.3497,86.6507 46.0164,86.8174 40.5,86C 39.5769,83.9592 39.2436,81.7925 39.5,79.5C 43.1171,74.653 45.7838,69.3196 47.5,63.5C 49.4832,63.1568 50.8166,63.8235 51.5,65.5 Z"/></g>
<g><path style="opacity:1" fill="#d7dca7" d="M 59.5,53.5 C 57.9774,56.6297 57.3107,59.963 57.5,63.5C 56.5386,61.7354 56.2053,59.7354 56.5,57.5C 56.7986,55.5447 57.7986,54.2114 59.5,53.5 Z"/></g>
<g><path style="opacity:1" fill="#e9d372" d="M 71.5,51.5 C 71.8333,51.5 72.1667,51.5 72.5,51.5C 75.6105,54.8311 76.9438,58.8311 76.5,63.5C 76.1667,63.5 75.8333,63.5 75.5,63.5C 75.5793,60.7294 75.0793,58.0627 74,55.5C 72.5187,54.5291 71.6854,53.1958 71.5,51.5 Z"/></g>
<g><path style="opacity:1" fill="#ebaef1" d="M 29.5,47.5 C 28.962,49.1172 28.6287,50.7839 28.5,52.5C 31.7131,52.19 34.7131,52.5233 37.5,53.5C 38.4816,56.9619 38.815,60.6286 38.5,64.5C 39.5,64.5 40.5,64.5 41.5,64.5C 41.3893,65.1174 41.056,65.6174 40.5,66C 35.7959,66.6477 31.1292,66.481 26.5,65.5C 26.5,60.8333 26.5,56.1667 26.5,51.5C 26.5544,49.368 27.5544,48.0347 29.5,47.5 Z"/></g>
<g><path style="opacity:1" fill="#fcc8fc" d="M 37.5,53.5 C 37.5,57.1667 37.5,60.8333 37.5,64.5C 34.5,64.5 31.5,64.5 28.5,64.5C 28.5,60.8333 28.5,57.1667 28.5,53.5C 31.5,53.5 34.5,53.5 37.5,53.5 Z"/></g>
<g><path style="opacity:1" fill="#f8cf44" d="M 70.5,50.5 C 70.5,51.1667 70.8333,51.5 71.5,51.5C 71.6854,53.1958 72.5187,54.5291 74,55.5C 75.0793,58.0627 75.5793,60.7294 75.5,63.5C 75.2964,65.6854 74.6298,67.6854 73.5,69.5C 72.8333,69.5 72.5,69.8333 72.5,70.5C 68.8815,71.2436 65.2148,71.577 61.5,71.5C 60.9202,69.2512 59.5869,67.5846 57.5,66.5C 57.5,65.5 57.5,64.5 57.5,63.5C 57.3107,59.963 57.9774,56.6297 59.5,53.5C 62.5807,50.8075 66.2473,49.8075 70.5,50.5 Z"/></g>
<g><path style="opacity:1" fill="#fbe98f" d="M 60.5,59.5 C 61.2807,62.3266 62.614,64.9933 64.5,67.5C 62.6745,68.5709 61.5079,67.9042 61,65.5C 60.5045,63.5273 60.3379,61.5273 60.5,59.5 Z"/></g>
<g><path style="opacity:1" fill="#fbeaa1" d="M 63.5,55.5 C 65.371,55.8588 66.871,56.8588 68,58.5C 68.5323,61.2635 69.3657,63.9302 70.5,66.5C 70.1667,66.8333 69.8333,67.1667 69.5,67.5C 65.3819,64.5971 63.3819,60.5971 63.5,55.5 Z"/></g>
<g><path style="opacity:1" fill="#fde487" d="M 67.5,54.5 C 69.1534,53.2006 70.6534,53.5339 72,55.5C 73.6006,58.0942 73.7673,60.7608 72.5,63.5C 72.0478,59.7407 70.3812,56.7407 67.5,54.5 Z"/></g>
<g><path style="opacity:1" fill="#dfd898" d="M 63.5,49.5 C 66.0593,49.1984 68.3926,49.5318 70.5,50.5C 66.2473,49.8075 62.5807,50.8075 59.5,53.5C 59.8333,51.1667 61.1667,49.8333 63.5,49.5 Z"/></g>
<g><path style="opacity:1" fill="#f69cf4" d="M 44.5,43.5 C 45.5,43.5 46.5,43.5 47.5,43.5C 47.5,44.5 47.5,45.5 47.5,46.5C 47.8275,51.544 47.4941,56.544 46.5,61.5C 45.3777,62.6302 44.0443,63.2969 42.5,63.5C 41.8333,63.5 41.5,63.8333 41.5,64.5C 40.5,64.5 39.5,64.5 38.5,64.5C 38.815,60.6286 38.4816,56.9619 37.5,53.5C 34.7131,52.5233 31.7131,52.19 28.5,52.5C 28.6287,50.7839 28.962,49.1172 29.5,47.5C 30.8333,47.5 31.5,46.8333 31.5,45.5C 35.6358,43.8166 39.9691,43.1499 44.5,43.5 Z"/></g>
<g><path style="opacity:1" fill="#fec5fe" d="M 42.5,49.5 C 43.7479,50.3339 44.4146,51.6672 44.5,53.5C 44.6353,55.808 43.9686,57.808 42.5,59.5C 41.2495,56.1259 41.2495,52.7926 42.5,49.5 Z"/></g>
<g><path style="opacity:1" fill="#fcc5fe" d="M 35.5,46.5 C 41.7839,46.1273 42.1172,47.1273 36.5,49.5C 32.9303,49.245 32.597,48.245 35.5,46.5 Z"/></g>
<g><path style="opacity:1" fill="#bde1fb" d="M 78.5,46.5 C 78.1667,48.5 77.8333,50.5 77.5,52.5C 75.7839,52.3713 74.1172,52.038 72.5,51.5C 71.3157,50.3121 71.3157,49.1455 72.5,48C 69.3205,47.8632 66.3205,48.3632 63.5,49.5C 61.1667,49.8333 59.8333,51.1667 59.5,53.5C 57.7986,54.2114 56.7986,55.5447 56.5,57.5C 55.8354,59.3691 55.1687,61.3691 54.5,63.5C 53.7348,64.6119 52.7348,65.2786 51.5,65.5C 50.8166,63.8235 49.4832,63.1568 47.5,63.5C 45.7838,69.3196 43.1171,74.653 39.5,79.5C 39.6168,77.5165 38.9501,75.8498 37.5,74.5C 36.011,74.4669 34.6776,73.9669 33.5,73C 35.9563,70.841 35.2896,70.0077 31.5,70.5C 30.9593,75.1158 29.626,75.4491 27.5,71.5C 27.8627,70.8165 28.1961,70.1499 28.5,69.5C 32.4724,68.8918 36.4724,68.3918 40.5,68C 42.0368,66.8904 42.7035,65.3904 42.5,63.5C 44.0443,63.2969 45.3777,62.6302 46.5,61.5C 47.4941,56.544 47.8275,51.544 47.5,46.5C 58.2692,46.2691 68.6025,46.2691 78.5,46.5 Z"/></g>
<g><path style="opacity:1" fill="#c9e1d4" d="M 72.5,51.5 C 72.1667,51.5 71.8333,51.5 71.5,51.5C 70.8333,51.5 70.5,51.1667 70.5,50.5C 68.3926,49.5318 66.0593,49.1984 63.5,49.5C 66.3205,48.3632 69.3205,47.8632 72.5,48C 71.3157,49.1455 71.3157,50.3121 72.5,51.5 Z"/></g>
<g><path style="opacity:1" fill="#bde1fd" d="M 22.5,37.5 C 41.1667,37.5 59.8333,37.5 78.5,37.5C 78.5,40.5 78.5,43.5 78.5,46.5C 68.6025,46.2691 58.2692,46.2691 47.5,46.5C 47.5,45.5 47.5,44.5 47.5,43.5C 46.5,43.5 45.5,43.5 44.5,43.5C 41.0242,42.3567 37.3575,42.1901 33.5,43C 32.244,43.4169 31.5774,44.2502 31.5,45.5C 31.5,46.8333 30.8333,47.5 29.5,47.5C 27.5544,48.0347 26.5544,49.368 26.5,51.5C 25.3503,56.3158 25.1837,61.3158 26,66.5C 26.6979,67.6906 27.5313,68.6906 28.5,69.5C 28.1961,70.1499 27.8627,70.8165 27.5,71.5C 29.626,75.4491 30.9593,75.1158 31.5,70.5C 35.2896,70.0077 35.9563,70.841 33.5,73C 34.6776,73.9669 36.011,74.4669 37.5,74.5C 38.9501,75.8498 39.6168,77.5165 39.5,79.5C 38.5,79.5 37.5,79.5 36.5,79.5C 36.6162,76.0897 34.9496,74.7564 31.5,75.5C 31.5,76.5 31.5,77.5 31.5,78.5C 32.8734,78.3433 34.2068,78.51 35.5,79C 32.5184,79.498 29.5184,79.6646 26.5,79.5C 26.6495,78.448 26.4828,77.448 26,76.5C 25.3333,75.1667 24.6667,75.1667 24,76.5C 23.8294,67.9899 23.3294,59.6566 22.5,51.5C 22.5,46.8333 22.5,42.1667 22.5,37.5 Z"/></g>
<g><path style="opacity:1" fill="#dfb7f8" d="M 44.5,43.5 C 39.9691,43.1499 35.6358,43.8166 31.5,45.5C 31.5774,44.2502 32.244,43.4169 33.5,43C 37.3575,42.1901 41.0242,42.3567 44.5,43.5 Z"/></g>
<g><path style="opacity:1" fill="#eed155" d="M 83.5,75.5 C 91.5,75.5 99.5,75.5 107.5,75.5C 107.5,81.1667 107.5,86.8333 107.5,92.5C 99.7721,94.4179 91.7721,95.0846 83.5,94.5C 83.5,89.5 83.5,84.5 83.5,79.5C 84.1667,83.1667 84.8333,86.8333 85.5,90.5C 85.8417,91.3382 86.5084,91.6716 87.5,91.5C 88.8333,91.5 90.1667,91.5 91.5,91.5C 93.1667,91.5 94.8333,91.5 96.5,91.5C 97.8333,91.5 99.1667,91.5 100.5,91.5C 101.833,91.5 103.167,91.5 104.5,91.5C 104.5,87.1667 104.5,82.8333 104.5,78.5C 97.6291,77.2233 90.6291,77.2233 83.5,78.5C 83.5,77.5 83.5,76.5 83.5,75.5 Z"/></g>
<g><path style="opacity:1" fill="#215680" d="M 91.5,79.5 C 92.8333,79.5 94.1667,79.5 95.5,79.5C 97.0696,81.8511 97.9029,84.5177 98,87.5C 98.3768,88.9423 99.2101,89.9423 100.5,90.5C 100.5,90.8333 100.5,91.1667 100.5,91.5C 99.1667,91.5 97.8333,91.5 96.5,91.5C 94.7044,88.9521 93.0378,88.9521 91.5,91.5C 90.1667,91.5 88.8333,91.5 87.5,91.5C 87.5,91.1667 87.5,90.8333 87.5,90.5C 88.8333,86.8333 90.1667,83.1667 91.5,79.5 Z"/></g>
<g><path style="opacity:1" fill="#b9e0da" d="M 96.5,91.5 C 94.8333,91.5 93.1667,91.5 91.5,91.5C 93.0378,88.9521 94.7044,88.9521 96.5,91.5 Z"/></g>
<g><path style="opacity:1" fill="#d4dbc4" d="M 86.5,79.5 C 86.185,83.3714 86.5184,87.0381 87.5,90.5C 87.5,90.8333 87.5,91.1667 87.5,91.5C 86.5084,91.6716 85.8417,91.3382 85.5,90.5C 85.185,86.6286 85.5184,82.9619 86.5,79.5 Z"/></g>
<g><path style="opacity:1" fill="#bbdff9" d="M 95.5,79.5 C 98.1667,79.5 100.833,79.5 103.5,79.5C 103.5,83.1667 103.5,86.8333 103.5,90.5C 102.5,90.5 101.5,90.5 100.5,90.5C 99.2101,89.9423 98.3768,88.9423 98,87.5C 97.9029,84.5177 97.0696,81.8511 95.5,79.5 Z"/></g>
<g><path style="opacity:1" fill="#9cccdf" d="M 92.5,82.5 C 93.5862,82.62 94.2528,83.2867 94.5,84.5C 94.1667,85.1667 93.8333,85.8333 93.5,86.5C 92.5713,85.3112 92.238,83.9778 92.5,82.5 Z"/></g>
<g><path style="opacity:1" fill="#b9e0fa" d="M 86.5,79.5 C 88.1667,79.5 89.8333,79.5 91.5,79.5C 90.1667,83.1667 88.8333,86.8333 87.5,90.5C 86.5184,87.0381 86.185,83.3714 86.5,79.5 Z"/></g>
<g><path style="opacity:1" fill="#cdd082" d="M 82.5,75.5 C 82.8333,75.5 83.1667,75.5 83.5,75.5C 83.5,76.5 83.5,77.5 83.5,78.5C 83.5,78.8333 83.5,79.1667 83.5,79.5C 83.5,84.5 83.5,89.5 83.5,94.5C 91.7721,95.0846 99.7721,94.4179 107.5,92.5C 107.5,93.5 107.5,94.5 107.5,95.5C 98.9832,95.8261 90.6499,95.4927 82.5,94.5C 82.5,88.1667 82.5,81.8333 82.5,75.5 Z"/></g>
<g><path style="opacity:1" fill="#b4dff9" d="M 112.5,22.5 C 112.833,22.5 113.167,22.5 113.5,22.5C 113.5,48.5 113.5,74.5 113.5,100.5C 99.5,100.5 85.5,100.5 71.5,100.5C 70.6371,99.0597 70.6371,97.7264 71.5,96.5C 54.0047,95.8333 36.6714,95.1667 19.5,94.5C 40.5,94.5 61.5,94.5 82.5,94.5C 90.6499,95.4927 98.9832,95.8261 107.5,95.5C 108.492,87.6841 108.826,79.6841 108.5,71.5C 109.5,71.5 110.5,71.5 111.5,71.5C 110.003,79.5444 110.169,87.5444 112,95.5C 112.5,74.1693 112.667,52.8359 112.5,31.5C 112.5,28.5 112.5,25.5 112.5,22.5 Z"/></g>
<g><path style="opacity:1" fill="#e4f5fb" d="M 10.5,64.5 C 10.5,76.8333 10.5,89.1667 10.5,101.5C 9.60164,102.158 8.60164,102.824 7.5,103.5C 8.50633,104.396 8.50633,105.062 7.5,105.5C 6.80762,104.975 6.30762,104.308 6,103.5C 5.18701,105.436 4.68701,107.436 4.5,109.5C 3.33892,94.6723 3.17226,79.6723 4,64.5C 4.5,65 5,65.5 5.5,66C 4.93428,69.0521 4.60094,72.0521 4.5,75C 5.07449,81.8364 5.74116,88.6698 6.5,95.5C 7.78015,85.0477 8.11348,74.7143 7.5,64.5C 8.5,64.5 9.5,64.5 10.5,64.5 Z"/></g>
<g><path style="opacity:1" fill="#2f6082" d="M 49.5,19.5 C 50.3382,19.8417 50.6716,20.5084 50.5,21.5C 37.9887,21.1714 25.6554,21.5048 13.5,22.5C 12.5022,48.328 12.1689,74.328 12.5,100.5C 26.8333,100.5 41.1667,100.5 55.5,100.5C 60.8333,100.5 66.1667,100.5 71.5,100.5C 85.5,100.5 99.5,100.5 113.5,100.5C 114.338,100.842 114.672,101.508 114.5,102.5C 99.5,102.5 84.5,102.5 69.5,102.5C 66.6146,102.194 63.9479,102.527 61.5,103.5C 60.1667,105.5 60.1667,107.5 61.5,109.5C 67.6446,110.49 73.9779,110.823 80.5,110.5C 80.5,113.5 80.5,116.5 80.5,119.5C 69.6794,120.495 58.6794,120.828 47.5,120.5C 47.5,116.833 47.5,113.167 47.5,109.5C 51.1667,109.5 54.8333,109.5 58.5,109.5C 59.4682,107.393 59.8016,105.059 59.5,102.5C 43.8333,102.5 28.1667,102.5 12.5,102.5C 11.8333,102.5 11.5,102.167 11.5,101.5C 11.5,74.5 11.5,47.5 11.5,20.5C 24.3443,20.8287 37.011,20.4954 49.5,19.5 Z"/></g>
<g><path style="opacity:1" fill="#bae0f8" d="M 12.5,102.5 C 28.1667,102.5 43.8333,102.5 59.5,102.5C 59.8016,105.059 59.4682,107.393 58.5,109.5C 58.5,107.5 58.5,105.5 58.5,103.5C 52.8333,103.5 47.1667,103.5 41.5,103.5C 31.6522,103.827 21.9856,103.494 12.5,102.5 Z"/></g>
<g><path style="opacity:1" fill="#4d7d99" d="M 61.5,103.5 C 63.9479,102.527 66.6146,102.194 69.5,102.5C 69.5,104.833 69.5,107.167 69.5,109.5C 73.1667,109.5 76.8333,109.5 80.5,109.5C 80.5,109.833 80.5,110.167 80.5,110.5C 73.9779,110.823 67.6446,110.49 61.5,109.5C 63.5,109.5 65.5,109.5 67.5,109.5C 67.5,107.5 67.5,105.5 67.5,103.5C 65.5,103.5 63.5,103.5 61.5,103.5 Z"/></g>
<g><path style="opacity:1" fill="#b6e0f9" d="M 61.5,103.5 C 63.5,103.5 65.5,103.5 67.5,103.5C 67.5,105.5 67.5,107.5 67.5,109.5C 65.5,109.5 63.5,109.5 61.5,109.5C 60.1667,107.5 60.1667,105.5 61.5,103.5 Z"/></g>
<g><path style="opacity:1" fill="#e0f2fb" d="M 69.5,102.5 C 84.5,102.5 99.5,102.5 114.5,102.5C 114.833,102.5 115.167,102.5 115.5,102.5C 115.119,103.931 114.119,104.764 112.5,105C 114.212,109.327 115.212,113.827 115.5,118.5C 113.5,118.5 111.5,118.5 109.5,118.5C 109.073,115.212 109.74,112.212 111.5,109.5C 109.758,107.027 107.925,107.027 106,109.5C 104.559,108.74 103.059,108.074 101.5,107.5C 94.4703,108.168 87.4703,108.834 80.5,109.5C 76.8333,109.5 73.1667,109.5 69.5,109.5C 69.5,107.167 69.5,104.833 69.5,102.5 Z"/></g>
<g><path style="opacity:1" fill="#e6f3fb" d="M 10.5,101.5 C 10.8333,101.5 11.1667,101.5 11.5,101.5C 11.5,102.167 11.8333,102.5 12.5,102.5C 21.9856,103.494 31.6522,103.827 41.5,103.5C 43.2646,104.461 45.2646,104.795 47.5,104.5C 47.5,105.5 47.5,106.5 47.5,107.5C 37.5389,108.089 27.7055,108.089 18,107.5C 17.0754,108.047 16.2421,108.713 15.5,109.5C 17.2603,112.212 17.927,115.212 17.5,118.5C 14.8333,118.5 12.1667,118.5 9.5,118.5C 7.5,118.5 5.5,118.5 3.5,118.5C 3.26414,115.391 3.59748,112.391 4.5,109.5C 4.68701,107.436 5.18701,105.436 6,103.5C 6.30762,104.308 6.80762,104.975 7.5,105.5C 8.50633,105.062 8.50633,104.396 7.5,103.5C 8.60164,102.824 9.60164,102.158 10.5,101.5 Z"/></g>
<g><path style="opacity:1" fill="#b3dff8" d="M 48.5,111.5 C 58.8333,111.5 69.1667,111.5 79.5,111.5C 79.5,113.833 79.5,116.167 79.5,118.5C 69.1667,118.5 58.8333,118.5 48.5,118.5C 48.5,116.167 48.5,113.833 48.5,111.5 Z"/></g>
<g><path style="opacity:1" fill="#e3f0fa" d="M 3.5,53.5 C 4.13306,53.8795 4.79973,54.2129 5.5,54.5C 3.73966,57.2123 3.07299,60.2123 3.5,63.5C 5.83333,63.5 8.16667,63.5 10.5,63.5C 10.5,63.8333 10.5,64.1667 10.5,64.5C 9.5,64.5 8.5,64.5 7.5,64.5C 8.11348,74.7143 7.78015,85.0477 6.5,95.5C 5.74116,88.6698 5.07449,81.8364 4.5,75C 4.60094,72.0521 4.93428,69.0521 5.5,66C 5,65.5 4.5,65 4,64.5C 3.17226,79.6723 3.33892,94.6723 4.5,109.5C 3.59748,112.391 3.26414,115.391 3.5,118.5C 5.5,118.5 7.5,118.5 9.5,118.5C 9.5,121.5 9.5,124.5 9.5,127.5C 6.16667,127.5 2.83333,127.5 -0.5,127.5C -0.5,116.833 -0.5,106.167 -0.5,95.5C 0.166648,84.9924 0.833315,74.3258 1.5,63.5C 2.1672,60.0227 2.83387,56.6893 3.5,53.5 Z"/></g>
<g><path style="opacity:1" fill="#e3f1fa" d="M 41.5,103.5 C 47.1667,103.5 52.8333,103.5 58.5,103.5C 58.5,105.5 58.5,107.5 58.5,109.5C 54.8333,109.5 51.1667,109.5 47.5,109.5C 47.5,113.167 47.5,116.833 47.5,120.5C 47.2011,122.604 47.5344,124.604 48.5,126.5C 49.4776,126.023 50.3109,125.357 51,124.5C 53.2092,124.989 55.0425,125.989 56.5,127.5C 40.8333,127.5 25.1667,127.5 9.5,127.5C 9.5,124.5 9.5,121.5 9.5,118.5C 12.1667,118.5 14.8333,118.5 17.5,118.5C 17.927,115.212 17.2603,112.212 15.5,109.5C 16.2421,108.713 17.0754,108.047 18,107.5C 27.7055,108.089 37.5389,108.089 47.5,107.5C 47.5,106.5 47.5,105.5 47.5,104.5C 45.2646,104.795 43.2646,104.461 41.5,103.5 Z"/></g>
<g><path style="opacity:1" fill="#e1f0fa" d="M 127.5,99.5 C 127.5,108.833 127.5,118.167 127.5,127.5C 116.167,127.5 104.833,127.5 93.5,127.5C 93.5,121.833 93.5,116.167 93.5,110.5C 89.5,110.5 85.5,110.5 81.5,110.5C 81.81,113.713 81.4767,116.713 80.5,119.5C 80.5,116.5 80.5,113.5 80.5,110.5C 80.5,110.167 80.5,109.833 80.5,109.5C 87.4703,108.834 94.4703,108.168 101.5,107.5C 103.059,108.074 104.559,108.74 106,109.5C 107.925,107.027 109.758,107.027 111.5,109.5C 109.74,112.212 109.073,115.212 109.5,118.5C 111.5,118.5 113.5,118.5 115.5,118.5C 115.212,113.827 114.212,109.327 112.5,105C 114.119,104.764 115.119,103.931 115.5,102.5C 115.5,102.167 115.5,101.833 115.5,101.5C 116.376,101.631 117.043,101.298 117.5,100.5C 116.691,98.9291 116.357,97.2624 116.5,95.5C 117.742,100.048 119.409,103.881 121.5,107C 122.068,110.263 120.734,111.763 117.5,111.5C 117.5,113.833 117.5,116.167 117.5,118.5C 119.5,118.5 121.5,118.5 123.5,118.5C 124.061,112.276 123.395,106.276 121.5,100.5C 122.585,99.2159 123.252,97.7159 123.5,96C 122.167,93 122.167,90 123.5,87C 123.252,85.2841 122.585,83.7841 121.5,82.5C 123.785,79.3609 124.118,76.0276 122.5,72.5C 123.083,62.1498 123.416,51.6498 123.5,41C 123.079,39.0107 122.412,37.1773 121.5,35.5C 123.045,34.7703 123.878,33.437 124,31.5C 124.5,54.1642 124.667,76.8309 124.5,99.5C 125.5,99.5 126.5,99.5 127.5,99.5 Z"/></g>
<g><path style="opacity:1" fill="#e5f4fb" d="M 93.5,127.5 C 81.1667,127.5 68.8333,127.5 56.5,127.5C 55.0425,125.989 53.2092,124.989 51,124.5C 50.3109,125.357 49.4776,126.023 48.5,126.5C 47.5344,124.604 47.2011,122.604 47.5,120.5C 58.6794,120.828 69.6794,120.495 80.5,119.5C 81.4767,116.713 81.81,113.713 81.5,110.5C 85.5,110.5 89.5,110.5 93.5,110.5C 93.5,116.167 93.5,121.833 93.5,127.5 Z"/></g>
</svg>
