<?xml version="1.0" encoding="UTF-8"?>
<!DOCTYPE svg PUBLIC "-//W3C//DTD SVG 1.1//EN" "http://www.w3.org/Graphics/SVG/1.1/DTD/svg11.dtd">
<svg xmlns="http://www.w3.org/2000/svg" version="1.1" width="64px" height="64px" style="shape-rendering:geometricPrecision; text-rendering:geometricPrecision; image-rendering:optimizeQuality; fill-rule:evenodd; clip-rule:evenodd" xmlns:xlink="http://www.w3.org/1999/xlink">
<g><path style="opacity:1" fill="#e4f4fc" d="M -0.5,-0.5 C 4.83333,-0.5 10.1667,-0.5 15.5,-0.5C 16.209,0.403972 17.209,0.737305 18.5,0.5C 17.791,1.40397 16.791,1.73731 15.5,1.5C 10.0555,1.56897 4.72214,2.23564 -0.5,3.5C -0.5,2.16667 -0.5,0.833333 -0.5,-0.5 Z"/></g>
<g><path style="opacity:1" fill="#ebf0f5" d="M 15.5,-0.5 C 18.8333,-0.5 22.1667,-0.5 25.5,-0.5C 26.6085,0.28997 27.9419,0.78997 29.5,1C 28.944,1.38258 28.6107,1.88258 28.5,2.5C 26.1667,2.5 23.8333,2.5 21.5,2.5C 21.1788,0.951857 20.1788,0.285191 18.5,0.5C 17.209,0.737305 16.209,0.403972 15.5,-0.5 Z"/></g>
<g><path style="opacity:1" fill="#e7f3f7" d="M 25.5,-0.5 C 32.8333,-0.5 40.1667,-0.5 47.5,-0.5C 44.0689,0.134708 40.7356,1.13471 37.5,2.5C 34.5,2.5 31.5,2.5 28.5,2.5C 28.6107,1.88258 28.944,1.38258 29.5,1C 27.9419,0.78997 26.6085,0.28997 25.5,-0.5 Z"/></g>
<g><path style="opacity:1" fill="#e9f1f6" d="M 15.5,1.5 C 15.5,2.16667 15.5,2.83333 15.5,3.5C 12.2869,3.19 9.2869,3.52333 6.5,4.5C 4.16667,4.5 1.83333,4.5 -0.5,4.5C -0.5,4.16667 -0.5,3.83333 -0.5,3.5C 4.72214,2.23564 10.0555,1.56897 15.5,1.5 Z"/></g>
<g><path style="opacity:1" fill="#e2f4fc" d="M 47.5,-0.5 C 52.8333,-0.5 58.1667,-0.5 63.5,-0.5C 63.5,-0.166667 63.5,0.166667 63.5,0.5C 59.8292,0.722467 56.1625,1.0558 52.5,1.5C 50.3603,1.55608 48.6936,2.22275 47.5,3.5C 45.1944,3.99255 42.861,4.32588 40.5,4.5C 40.1667,4.5 39.8333,4.5 39.5,4.5C 39.1667,3.5 38.5,2.83333 37.5,2.5C 40.7356,1.13471 44.0689,0.134708 47.5,-0.5 Z"/></g>
<g><path style="opacity:1" fill="#e2f4fe" d="M 18.5,0.5 C 20.1788,0.285191 21.1788,0.951857 21.5,2.5C 21.5,2.83333 21.5,3.16667 21.5,3.5C 19.5,3.5 17.5,3.5 15.5,3.5C 15.5,2.83333 15.5,2.16667 15.5,1.5C 16.791,1.73731 17.791,1.40397 18.5,0.5 Z"/></g>
<g><path style="opacity:1" fill="#d1f0fa" d="M 21.5,3.5 C 21.5,3.16667 21.5,2.83333 21.5,2.5C 23.8333,2.5 26.1667,2.5 28.5,2.5C 31.5,2.5 34.5,2.5 37.5,2.5C 38.5,2.83333 39.1667,3.5 39.5,4.5C 39.5,4.83333 39.5,5.16667 39.5,5.5C 34.1667,2.83333 28.8333,2.83333 23.5,5.5C 23.5,4.83333 23.1667,4.5 22.5,4.5C 22.5,3.83333 22.1667,3.5 21.5,3.5 Z"/></g>
<g><path style="opacity:1" fill="#e8f2f9" d="M 63.5,0.5 C 63.5,2.16667 63.5,3.83333 63.5,5.5C 61.5,5.16667 59.5,4.83333 57.5,4.5C 54.3752,3.52056 51.0419,3.18723 47.5,3.5C 48.6936,2.22275 50.3603,1.55608 52.5,1.5C 56.1625,1.0558 59.8292,0.722467 63.5,0.5 Z"/></g>
<g><path style="opacity:1" fill="#306783" d="M 39.5,5.5 C 39.5,6.5 39.5,7.5 39.5,8.5C 39.1667,8.5 38.8333,8.5 38.5,8.5C 38.1667,8.5 37.8333,8.5 37.5,8.5C 37.5,7.5 37.5,6.5 37.5,5.5C 36.1667,5.5 34.8333,5.5 33.5,5.5C 33.5,6.83333 33.5,8.16667 33.5,9.5C 32.1667,9.5 30.8333,9.5 29.5,9.5C 29.5,8.16667 29.5,6.83333 29.5,5.5C 28.1667,5.5 26.8333,5.5 25.5,5.5C 25.5,6.5 25.5,7.5 25.5,8.5C 25.1667,8.5 24.8333,8.5 24.5,8.5C 24.1667,8.5 23.8333,8.5 23.5,8.5C 23.5,7.5 23.5,6.5 23.5,5.5C 28.8333,2.83333 34.1667,2.83333 39.5,5.5 Z"/></g>
<g><path style="opacity:1" fill="#dcf1f9" d="M 47.5,3.5 C 51.0419,3.18723 54.3752,3.52056 57.5,4.5C 54.2139,5.20713 50.8806,5.54046 47.5,5.5C 47.5,4.83333 47.5,4.16667 47.5,3.5 Z"/></g>
<g><path style="opacity:1" fill="#e1f2fd" d="M 6.5,4.5 C 9.2869,3.52333 12.2869,3.19 15.5,3.5C 15.5,4.5 15.5,5.5 15.5,6.5C 13.1667,6.5 10.8333,6.5 8.5,6.5C 7.26166,6.18999 7.26166,5.68999 8.5,5C 7.90558,4.53566 7.23891,4.36899 6.5,4.5 Z"/></g>
<g><path style="opacity:1" fill="#e8f1f9" d="M 47.5,3.5 C 47.5,4.16667 47.5,4.83333 47.5,5.5C 49.1667,6.16667 50.8333,6.83333 52.5,7.5C 49.6029,7.31872 46.7695,7.65205 44,8.5C 42.251,7.59024 41.0843,6.2569 40.5,4.5C 42.861,4.32588 45.1944,3.99255 47.5,3.5 Z"/></g>
<g><path style="opacity:1" fill="#e7f2fe" d="M 57.5,4.5 C 59.5,4.83333 61.5,5.16667 63.5,5.5C 63.5,6.16667 63.5,6.83333 63.5,7.5C 61.1667,7.5 58.8333,7.5 56.5,7.5C 55.1667,7.5 53.8333,7.5 52.5,7.5C 50.8333,6.83333 49.1667,6.16667 47.5,5.5C 50.8806,5.54046 54.2139,5.20713 57.5,4.5 Z"/></g>
<g><path style="opacity:1" fill="#e3f5fd" d="M -0.5,4.5 C 1.83333,4.5 4.16667,4.5 6.5,4.5C 7.23891,4.36899 7.90558,4.53566 8.5,5C 7.26166,5.68999 7.26166,6.18999 8.5,6.5C 7.16667,7.16667 5.83333,7.83333 4.5,8.5C 2.88277,7.962 1.2161,7.62867 -0.5,7.5C -0.5,6.5 -0.5,5.5 -0.5,4.5 Z"/></g>
<g><path style="opacity:1" fill="#e5f2fa" d="M 15.5,3.5 C 17.5,3.5 19.5,3.5 21.5,3.5C 22.1667,3.5 22.5,3.83333 22.5,4.5C 22.5,5.16667 22.5,5.83333 22.5,6.5C 20.1256,7.68612 17.7922,7.68612 15.5,6.5C 15.5,5.5 15.5,4.5 15.5,3.5 Z"/></g>
<g><path style="opacity:1" fill="#e8f1f1" d="M 8.5,6.5 C 10.8333,6.5 13.1667,6.5 15.5,6.5C 17.7922,7.68612 20.1256,7.68612 22.5,6.5C 16.9262,8.45334 10.9262,9.12 4.5,8.5C 5.83333,7.83333 7.16667,7.16667 8.5,6.5 Z"/></g>
<g><path style="opacity:1" fill="#d1ebef" d="M 29.5,9.5 C 27.901,9.76781 26.5676,9.43448 25.5,8.5C 25.5,7.5 25.5,6.5 25.5,5.5C 26.8333,5.5 28.1667,5.5 29.5,5.5C 29.5,6.83333 29.5,8.16667 29.5,9.5 Z"/></g>
<g><path style="opacity:1" fill="#d6e6f2" d="M 37.5,8.5 C 36.4324,9.43448 35.099,9.76781 33.5,9.5C 33.5,8.16667 33.5,6.83333 33.5,5.5C 34.8333,5.5 36.1667,5.5 37.5,5.5C 37.5,6.5 37.5,7.5 37.5,8.5 Z"/></g>
<g><path style="opacity:1" fill="#e5fdfd" d="M 22.5,4.5 C 23.1667,4.5 23.5,4.83333 23.5,5.5C 23.5,6.5 23.5,7.5 23.5,8.5C 23.5,9.16667 23.1667,9.5 22.5,9.5C 16.642,9.1778 10.9753,9.51114 5.5,10.5C 4.66175,10.8417 4.32842,11.5084 4.5,12.5C 4.16667,12.5 3.83333,12.5 3.5,12.5C 3.43255,11.0413 3.76589,9.70792 4.5,8.5C 10.9262,9.12 16.9262,8.45334 22.5,6.5C 22.5,5.83333 22.5,5.16667 22.5,4.5 Z"/></g>
<g><path style="opacity:1" fill="#e6f8f6" d="M 39.5,4.5 C 39.8333,4.5 40.1667,4.5 40.5,4.5C 41.0843,6.2569 42.251,7.59024 44,8.5C 46.7695,7.65205 49.6029,7.31872 52.5,7.5C 53.8333,7.5 55.1667,7.5 56.5,7.5C 56.8333,8.16667 57.1667,8.83333 57.5,9.5C 51.5,9.5 45.5,9.5 39.5,9.5C 39.5,9.16667 39.5,8.83333 39.5,8.5C 39.5,7.5 39.5,6.5 39.5,5.5C 39.5,5.16667 39.5,4.83333 39.5,4.5 Z"/></g>
<g><path style="opacity:1" fill="#e2f4f9" d="M 56.5,7.5 C 58.8333,7.5 61.1667,7.5 63.5,7.5C 63.5,9.83333 63.5,12.1667 63.5,14.5C 61.7085,14.366 60.0418,14.6993 58.5,15.5C 58.7845,13.5853 58.4511,11.9187 57.5,10.5C 57.5,10.1667 57.5,9.83333 57.5,9.5C 57.1667,8.83333 56.8333,8.16667 56.5,7.5 Z"/></g>
<g><path style="opacity:1" fill="#e3f2fb" d="M -0.5,7.5 C 1.2161,7.62867 2.88277,7.962 4.5,8.5C 3.76589,9.70792 3.43255,11.0413 3.5,12.5C 2.16667,12.5 0.833333,12.5 -0.5,12.5C -0.5,10.8333 -0.5,9.16667 -0.5,7.5 Z"/></g>
<g><path style="opacity:1" fill="#72a1b9" d="M 5.5,10.5 C 10.9753,9.51114 16.642,9.1778 22.5,9.5C 22.5,10.1667 22.5,10.8333 22.5,11.5C 20.5,11.5 18.5,11.5 16.5,11.5C 13.1667,11.5 9.83333,11.5 6.5,11.5C 6.5,10.8333 6.16667,10.5 5.5,10.5 Z"/></g>
<g><path style="opacity:1" fill="#7babd1" d="M 23.5,8.5 C 23.8333,8.5 24.1667,8.5 24.5,8.5C 26.3972,9.80478 28.7305,10.4714 31.5,10.5C 34.2695,10.4714 36.6028,9.80478 38.5,8.5C 38.8333,8.5 39.1667,8.5 39.5,8.5C 39.5,8.83333 39.5,9.16667 39.5,9.5C 39.5,10.1667 39.5,10.8333 39.5,11.5C 34.5,11.5 29.5,11.5 24.5,11.5C 23.8333,11.5 23.1667,11.5 22.5,11.5C 22.5,10.8333 22.5,10.1667 22.5,9.5C 23.1667,9.5 23.5,9.16667 23.5,8.5 Z"/></g>
<g><path style="opacity:1" fill="#054271" d="M 24.5,8.5 C 24.8333,8.5 25.1667,8.5 25.5,8.5C 26.5676,9.43448 27.901,9.76781 29.5,9.5C 30.8333,9.5 32.1667,9.5 33.5,9.5C 35.099,9.76781 36.4324,9.43448 37.5,8.5C 37.8333,8.5 38.1667,8.5 38.5,8.5C 36.6028,9.80478 34.2695,10.4714 31.5,10.5C 28.7305,10.4714 26.3972,9.80478 24.5,8.5 Z"/></g>
<g><path style="opacity:1" fill="#76a0bc" d="M 39.5,9.5 C 45.5,9.5 51.5,9.5 57.5,9.5C 57.5,9.83333 57.5,10.1667 57.5,10.5C 56.8333,10.5 56.5,10.8333 56.5,11.5C 51.5,11.5 46.5,11.5 41.5,11.5C 40.8333,11.5 40.1667,11.5 39.5,11.5C 39.5,10.8333 39.5,10.1667 39.5,9.5 Z"/></g>
<g><path style="opacity:1" fill="#c1eefd" d="M 16.5,11.5 C 18.5,11.5 20.5,11.5 22.5,11.5C 23.1667,11.5 23.8333,11.5 24.5,11.5C 25.8333,12.1667 27.1667,12.8333 28.5,13.5C 24.5,13.5 20.5,13.5 16.5,13.5C 16.5,12.8333 16.5,12.1667 16.5,11.5 Z"/></g>
<g><path style="opacity:1" fill="#bfecfd" d="M 41.5,11.5 C 46.5,11.5 51.5,11.5 56.5,11.5C 56.5,12.1667 56.5,12.8333 56.5,13.5C 51.5,13.5 46.5,13.5 41.5,13.5C 41.5,12.8333 41.5,12.1667 41.5,11.5 Z"/></g>
<g><path style="opacity:1" fill="#c1ebfd" d="M 6.5,11.5 C 9.83333,11.5 13.1667,11.5 16.5,11.5C 16.5,12.1667 16.5,12.8333 16.5,13.5C 13.9407,13.1984 11.6074,13.5318 9.5,14.5C 8.83333,14.5 8.5,14.8333 8.5,15.5C 7.83333,15.5 7.16667,15.5 6.5,15.5C 6.5,14.1667 6.5,12.8333 6.5,11.5 Z"/></g>
<g><path style="opacity:1" fill="#c2eafd" d="M 24.5,11.5 C 29.5,11.5 34.5,11.5 39.5,11.5C 40.1667,11.5 40.8333,11.5 41.5,11.5C 41.5,12.1667 41.5,12.8333 41.5,13.5C 37.1667,13.5 32.8333,13.5 28.5,13.5C 27.1667,12.8333 25.8333,12.1667 24.5,11.5 Z"/></g>
<g><path style="opacity:1" fill="#136baf" d="M 9.5,14.5 C 16.1667,14.5 22.8333,14.5 29.5,14.5C 29.5,14.8333 29.5,15.1667 29.5,15.5C 22.7453,14.8771 16.412,15.5437 10.5,17.5C 10.1667,17.5 9.83333,17.5 9.5,17.5C 9.5,16.5 9.5,15.5 9.5,14.5 Z"/></g>
<g><path style="opacity:1" fill="#136aad" d="M 29.5,15.5 C 29.5,15.1667 29.5,14.8333 29.5,14.5C 37.5,14.5 45.5,14.5 53.5,14.5C 53.5,15.5 53.5,16.5 53.5,17.5C 53.1667,17.5 52.8333,17.5 52.5,17.5C 45.2395,15.5349 37.5729,14.8682 29.5,15.5 Z"/></g>
<g><path style="opacity:1" fill="#0e9bee" d="M 29.5,15.5 C 37.5729,14.8682 45.2395,15.5349 52.5,17.5C 38.5,17.5 24.5,17.5 10.5,17.5C 16.412,15.5437 22.7453,14.8771 29.5,15.5 Z"/></g>
<g><path style="opacity:1" fill="#96cdec" d="M 9.5,14.5 C 11.6074,13.5318 13.9407,13.1984 16.5,13.5C 20.5,13.5 24.5,13.5 28.5,13.5C 32.8333,13.5 37.1667,13.5 41.5,13.5C 46.5,13.5 51.5,13.5 56.5,13.5C 56.5,17.5 56.5,21.5 56.5,25.5C 55.8333,25.5 55.1667,25.5 54.5,25.5C 54.8064,22.6146 54.4731,19.9479 53.5,17.5C 53.5,16.5 53.5,15.5 53.5,14.5C 45.5,14.5 37.5,14.5 29.5,14.5C 22.8333,14.5 16.1667,14.5 9.5,14.5 Z"/></g>
<g><path style="opacity:1" fill="#c3daf9" d="M 13.5,18.5 C 16.8333,18.5 20.1667,18.5 23.5,18.5C 23.5,19.5 23.5,20.5 23.5,21.5C 23.1667,21.5 22.8333,21.5 22.5,21.5C 20.1667,21.5 17.8333,21.5 15.5,21.5C 14.7375,20.7321 13.7375,20.2321 12.5,20C 13.056,19.6174 13.3893,19.1174 13.5,18.5 Z"/></g>
<g><path style="opacity:1" fill="#b2c1ea" d="M 44.5,18.5 C 46.5,18.5 48.5,18.5 50.5,18.5C 50.5,18.8333 50.5,19.1667 50.5,19.5C 49.5084,19.3284 48.8417,19.6618 48.5,20.5C 47.1667,20.5 45.8333,20.5 44.5,20.5C 44.5,21.8333 44.5,23.1667 44.5,24.5C 44.1667,24.5 43.8333,24.5 43.5,24.5C 43.3253,22.3792 43.6586,20.3792 44.5,18.5 Z"/></g>
<g><path style="opacity:1" fill="#e8f1fb" d="M 63.5,14.5 C 63.5,16.8333 63.5,19.1667 63.5,21.5C 62.2209,20.032 60.5542,19.3653 58.5,19.5C 58.5,18.1667 58.5,16.8333 58.5,15.5C 60.0418,14.6993 61.7085,14.366 63.5,14.5 Z"/></g>
<g><path style="opacity:1" fill="#bae3fb" d="M 28.5,18.5 C 32.1667,18.5 35.8333,18.5 39.5,18.5C 39.5,19.1667 39.5,19.8333 39.5,20.5C 38.5386,22.2646 38.2053,24.2646 38.5,26.5C 38.1667,26.5 37.8333,26.5 37.5,26.5C 36.962,24.8828 36.6287,23.2161 36.5,21.5C 33.911,21.461 31.911,22.461 30.5,24.5C 30.1667,24.5 29.8333,24.5 29.5,24.5C 28.6586,22.6208 28.3253,20.6208 28.5,18.5 Z"/></g>
<g><path style="opacity:1" fill="#326e8d" d="M 39.5,18.5 C 40.1667,21.5 40.8333,24.5 41.5,27.5C 41.5,28.5 41.5,29.5 41.5,30.5C 41.5,31.5 41.5,32.5 41.5,33.5C 40.8333,33.5 40.1667,33.5 39.5,33.5C 39.5,29.1667 39.5,24.8333 39.5,20.5C 39.5,19.8333 39.5,19.1667 39.5,18.5 Z"/></g>
<g><path style="opacity:1" fill="#d6bef8" d="M 44.5,18.5 C 43.6586,20.3792 43.3253,22.3792 43.5,24.5C 43.7822,25.7777 44.4489,26.7777 45.5,27.5C 44.1667,27.5 42.8333,27.5 41.5,27.5C 41.5,24.5 41.5,21.5 41.5,18.5C 42.5,18.5 43.5,18.5 44.5,18.5 Z"/></g>
<g><path style="opacity:1" fill="#bdeafe" d="M 6.5,15.5 C 7.16667,15.5 7.83333,15.5 8.5,15.5C 8.66615,21.5092 8.49949,27.5092 8,33.5C 7.61742,34.056 7.11742,34.3893 6.5,34.5C 6.5,28.1667 6.5,21.8333 6.5,15.5 Z"/></g>
<g><path style="opacity:1" fill="#d4c9f4" d="M 53.5,17.5 C 54.4731,19.9479 54.8064,22.6146 54.5,25.5C 54.6716,26.4916 54.3382,27.1583 53.5,27.5C 51.8333,27.5 50.1667,27.5 48.5,27.5C 49.9187,26.5489 51.5853,26.2155 53.5,26.5C 53.5,23.8333 53.5,21.1667 53.5,18.5C 53.5,18.1667 53.5,17.8333 53.5,17.5 Z"/></g>
<g><path style="opacity:1" fill="#9acdf0" d="M 10.5,18.5 C 10.8333,18.5 11.1667,18.5 11.5,18.5C 11.1736,27.3494 11.507,36.0161 12.5,44.5C 13.1667,44.5 13.8333,44.5 14.5,44.5C 16.8333,44.5 19.1667,44.5 21.5,44.5C 24.3854,44.1936 27.0521,44.5269 29.5,45.5C 27.8333,45.5 26.1667,45.5 24.5,45.5C 19.8333,45.5 15.1667,45.5 10.5,45.5C 10.5,36.5 10.5,27.5 10.5,18.5 Z"/></g>
<g><path style="opacity:1" fill="#bde1fb" d="M 23.5,18.5 C 25.1667,18.5 26.8333,18.5 28.5,18.5C 28.3253,20.6208 28.6586,22.6208 29.5,24.5C 29.0679,25.7095 28.4013,26.7095 27.5,27.5C 27.8134,24.7531 27.48,22.0865 26.5,19.5C 26.1667,21.5 25.8333,23.5 25.5,25.5C 24.8281,24.0508 24.1614,22.7175 23.5,21.5C 23.5,20.5 23.5,19.5 23.5,18.5 Z"/></g>
<g><path style="opacity:1" fill="#b1dbf6" d="M 50.5,19.5 C 51.1471,20.2739 51.4805,21.2739 51.5,22.5C 51.3601,24.0296 50.6935,25.0296 49.5,25.5C 48.6993,23.9582 48.366,22.2915 48.5,20.5C 48.8417,19.6618 49.5084,19.3284 50.5,19.5 Z"/></g>
<g><path style="opacity:1" fill="#d3caf6" d="M 15.5,22.5 C 13.5682,23.9764 13.2348,25.6431 14.5,27.5C 14.67,28.8221 14.3366,29.9887 13.5,31C 14.5266,31.5133 15.5266,32.0133 16.5,32.5C 18.2915,32.634 19.9582,32.3007 21.5,31.5C 19.0287,33.4433 16.0287,34.4433 12.5,34.5C 12.5,30.5 12.5,26.5 12.5,22.5C 13.5,22.5 14.5,22.5 15.5,22.5 Z"/></g>
<g><path style="opacity:1" fill="#c2e4e6" d="M 37.5,26.5 C 36.8333,26.1667 36.1667,25.8333 35.5,25.5C 34.0813,24.5489 32.4147,24.2155 30.5,24.5C 31.911,22.461 33.911,21.461 36.5,21.5C 36.6287,23.2161 36.962,24.8828 37.5,26.5 Z"/></g>
<g><path style="opacity:1" fill="#e7f4fc" d="M -0.5,12.5 C 0.833333,12.5 2.16667,12.5 3.5,12.5C 3.83333,12.5 4.16667,12.5 4.5,12.5C 4.82713,22.3478 4.4938,32.0144 3.5,41.5C 3.5,39.5 3.5,37.5 3.5,35.5C 3.46131,32.6786 2.79465,30.0119 1.5,27.5C 0.893326,27.6236 0.559992,27.9569 0.5,28.5C 0.166667,28.5 -0.166667,28.5 -0.5,28.5C -0.5,23.1667 -0.5,17.8333 -0.5,12.5 Z"/></g>
<g><path style="opacity:1" fill="#26577e" d="M 48.5,20.5 C 48.366,22.2915 48.6993,23.9582 49.5,25.5C 47.6026,24.6191 45.9359,24.2858 44.5,24.5C 44.5,23.1667 44.5,21.8333 44.5,20.5C 45.8333,20.5 47.1667,20.5 48.5,20.5 Z"/></g>
<g><path style="opacity:1" fill="#e3f1fd" d="M 58.5,20.5 C 58.5,20.1667 58.5,19.8333 58.5,19.5C 60.5542,19.3653 62.2209,20.032 63.5,21.5C 63.5,22.5 63.5,23.5 63.5,24.5C 61.8041,26.129 60.8041,25.7957 60.5,23.5C 60.7148,21.8212 60.0481,20.8212 58.5,20.5 Z"/></g>
<g><path style="opacity:1" fill="#f5aafa" d="M 15.5,21.5 C 17.8333,21.5 20.1667,21.5 22.5,21.5C 22.6621,23.5273 22.4955,25.5273 22,27.5C 20.982,24.3576 19.8153,24.0242 18.5,26.5C 17.2921,27.2341 15.9587,27.5674 14.5,27.5C 13.2348,25.6431 13.5682,23.9764 15.5,22.5C 15.5,22.1667 15.5,21.8333 15.5,21.5 Z"/></g>
<g><path style="opacity:1" fill="#c2dcfd" d="M 27.5,27.5 C 27.5,27.8333 27.5,28.1667 27.5,28.5C 26.596,29.209 26.2627,30.209 26.5,31.5C 25.1667,31.5 23.8333,31.5 22.5,31.5C 23.2071,28.2139 23.5405,24.8806 23.5,21.5C 24.1614,22.7175 24.8281,24.0508 25.5,25.5C 25.8333,23.5 26.1667,21.5 26.5,19.5C 27.48,22.0865 27.8134,24.7531 27.5,27.5 Z"/></g>
<g><path style="opacity:1" fill="#44669f" d="M 10.5,18.5 C 10.5,18.1667 10.5,17.8333 10.5,17.5C 24.5,17.5 38.5,17.5 52.5,17.5C 52.8333,17.5 53.1667,17.5 53.5,17.5C 53.5,17.8333 53.5,18.1667 53.5,18.5C 52.5,18.5 51.5,18.5 50.5,18.5C 48.5,18.5 46.5,18.5 44.5,18.5C 43.5,18.5 42.5,18.5 41.5,18.5C 41.5,21.5 41.5,24.5 41.5,27.5C 40.8333,24.5 40.1667,21.5 39.5,18.5C 35.8333,18.5 32.1667,18.5 28.5,18.5C 26.8333,18.5 25.1667,18.5 23.5,18.5C 20.1667,18.5 16.8333,18.5 13.5,18.5C 12.8333,18.5 12.1667,18.5 11.5,18.5C 11.1667,18.5 10.8333,18.5 10.5,18.5 Z"/></g>
<g><path style="opacity:1" fill="#f0adf1" d="M 22.5,21.5 C 22.8333,21.5 23.1667,21.5 23.5,21.5C 23.5405,24.8806 23.2071,28.2139 22.5,31.5C 22.1667,31.5 21.8333,31.5 21.5,31.5C 19.9582,32.3007 18.2915,32.634 16.5,32.5C 18.0746,30.8863 18.7413,28.8863 18.5,26.5C 19.8153,24.0242 20.982,24.3576 22,27.5C 22.4955,25.5273 22.6621,23.5273 22.5,21.5 Z"/></g>
<g><path style="opacity:1" fill="#e5f3f5" d="M 60.5,23.5 C 60.8041,25.7957 61.8041,26.129 63.5,24.5C 63.5,26.8333 63.5,29.1667 63.5,31.5C 62.8423,30.6016 62.1757,29.6016 61.5,28.5C 60.8165,28.8627 60.1499,29.1961 59.5,29.5C 59.2053,27.2646 59.5386,25.2646 60.5,23.5 Z"/></g>
<g><path style="opacity:1" fill="#cfa8eb" d="M 50.5,19.5 C 50.5,19.1667 50.5,18.8333 50.5,18.5C 51.5,18.5 52.5,18.5 53.5,18.5C 53.5,21.1667 53.5,23.8333 53.5,26.5C 51.5853,26.2155 49.9187,26.5489 48.5,27.5C 47.5,27.5 46.5,27.5 45.5,27.5C 44.4489,26.7777 43.7822,25.7777 43.5,24.5C 43.8333,24.5 44.1667,24.5 44.5,24.5C 45.9359,24.2858 47.6026,24.6191 49.5,25.5C 50.6935,25.0296 51.3601,24.0296 51.5,22.5C 51.4805,21.2739 51.1471,20.2739 50.5,19.5 Z"/></g>
<g><path style="opacity:1" fill="#e2faf8" d="M 58.5,20.5 C 60.0481,20.8212 60.7148,21.8212 60.5,23.5C 59.5386,25.2646 59.2053,27.2646 59.5,29.5C 58.5837,32.1874 58.2504,29.1874 58.5,20.5 Z"/></g>
<g><path style="opacity:1" fill="#c1e5fc" d="M 11.5,18.5 C 12.1667,18.5 12.8333,18.5 13.5,18.5C 13.3893,19.1174 13.056,19.6174 12.5,20C 13.7375,20.2321 14.7375,20.7321 15.5,21.5C 15.5,21.8333 15.5,22.1667 15.5,22.5C 14.5,22.5 13.5,22.5 12.5,22.5C 12.5,26.5 12.5,30.5 12.5,34.5C 12.5,34.8333 12.5,35.1667 12.5,35.5C 12.5,38.5 12.5,41.5 12.5,44.5C 11.507,36.0161 11.1736,27.3494 11.5,18.5 Z"/></g>
<g><path style="opacity:1" fill="#fac9fb" d="M 18.5,26.5 C 18.7413,28.8863 18.0746,30.8863 16.5,32.5C 15.5266,32.0133 14.5266,31.5133 13.5,31C 14.3366,29.9887 14.67,28.8221 14.5,27.5C 15.9587,27.5674 17.2921,27.2341 18.5,26.5 Z"/></g>
<g><path style="opacity:1" fill="#f6d75e" d="M 30.5,26.5 C 31.9778,26.238 33.3112,26.5713 34.5,27.5C 33.675,28.3857 32.675,28.719 31.5,28.5C 31.5,29.8333 31.5,31.1667 31.5,32.5C 32.1834,34.1765 33.5168,34.8432 35.5,34.5C 34.7261,35.1471 33.7261,35.4805 32.5,35.5C 30.9704,35.3601 29.9704,34.6935 29.5,33.5C 29.1984,30.9407 29.5318,28.6074 30.5,26.5 Z"/></g>
<g><path style="opacity:1" fill="#f3d979" d="M 30.5,26.5 C 31.9187,25.5489 33.5853,25.2155 35.5,25.5C 36.1667,25.8333 36.8333,26.1667 37.5,26.5C 37.5,27.8333 37.5,29.1667 37.5,30.5C 35.4017,29.0857 34.4017,29.7524 34.5,32.5C 33.5,32.5 32.5,32.5 31.5,32.5C 31.5,31.1667 31.5,29.8333 31.5,28.5C 32.675,28.719 33.675,28.3857 34.5,27.5C 33.3112,26.5713 31.9778,26.238 30.5,26.5 Z"/></g>
<g><path style="opacity:1" fill="#79d6c2" d="M 41.5,27.5 C 42.8333,27.5 44.1667,27.5 45.5,27.5C 46.5,27.5 47.5,27.5 48.5,27.5C 50.1667,27.5 51.8333,27.5 53.5,27.5C 54.8333,28.8333 54.8333,30.1667 53.5,31.5C 52.8333,32.8333 52.1667,34.1667 51.5,35.5C 50.9759,33.6943 50.3092,32.0276 49.5,30.5C 48.5,30.5 47.5,30.5 46.5,30.5C 44.9504,29.2801 43.2837,29.2801 41.5,30.5C 41.5,29.5 41.5,28.5 41.5,27.5 Z"/></g>
<g><path style="opacity:1" fill="#dad593" d="M 29.5,24.5 C 29.8333,24.5 30.1667,24.5 30.5,24.5C 32.4147,24.2155 34.0813,24.5489 35.5,25.5C 33.5853,25.2155 31.9187,25.5489 30.5,26.5C 29.5318,28.6074 29.1984,30.9407 29.5,33.5C 28.0687,32.2196 27.4021,30.5529 27.5,28.5C 27.5,28.1667 27.5,27.8333 27.5,27.5C 28.4013,26.7095 29.0679,25.7095 29.5,24.5 Z"/></g>
<g><path style="opacity:1" fill="#b8e2fb" d="M 54.5,25.5 C 55.1667,25.5 55.8333,25.5 56.5,25.5C 56.5,32.8333 56.5,40.1667 56.5,47.5C 54.8746,44.1091 53.8746,40.4425 53.5,36.5C 53.5,34.8333 53.5,33.1667 53.5,31.5C 54.8333,30.1667 54.8333,28.8333 53.5,27.5C 54.3382,27.1583 54.6716,26.4916 54.5,25.5 Z"/></g>
<g><path style="opacity:1" fill="#225a7c" d="M 9.5,17.5 C 9.83333,17.5 10.1667,17.5 10.5,17.5C 10.5,17.8333 10.5,18.1667 10.5,18.5C 10.5,27.5 10.5,36.5 10.5,45.5C 15.1667,45.5 19.8333,45.5 24.5,45.5C 29.6405,46.4881 34.9738,46.8214 40.5,46.5C 40.5,46.8333 40.5,47.1667 40.5,47.5C 32.1667,47.5 23.8333,47.5 15.5,47.5C 13.5,47.5 11.5,47.5 9.5,47.5C 9.5,37.5 9.5,27.5 9.5,17.5 Z"/></g>
<g><path style="opacity:1" fill="#4e8aa4" d="M 49.5,30.5 C 50.3092,32.0276 50.9759,33.6943 51.5,35.5C 49.5,35.5 47.5,35.5 45.5,35.5C 45.2322,33.901 45.5655,32.5676 46.5,31.5C 46.5,32.5 46.5,33.5 46.5,34.5C 47.675,34.719 48.675,34.3857 49.5,33.5C 48.8333,33.1667 48.1667,32.8333 47.5,32.5C 48.2427,31.8182 48.9094,31.1515 49.5,30.5 Z"/></g>
<g><path style="opacity:1" fill="#e1f5fe" d="M 0.5,28.5 C 0.559992,27.9569 0.893326,27.6236 1.5,27.5C 2.79465,30.0119 3.46131,32.6786 3.5,35.5C 2.83333,36.5 2.16667,37.5 1.5,38.5C 1.81277,34.9581 1.47944,31.6248 0.5,28.5 Z"/></g>
<g><path style="opacity:1" fill="#baeafd" d="M 39.5,20.5 C 39.5,24.8333 39.5,29.1667 39.5,33.5C 39.5,36.8333 39.5,40.1667 39.5,43.5C 39.5,43.8333 39.5,44.1667 39.5,44.5C 38.7611,44.631 38.0944,44.4643 37.5,44C 38.8009,42.3845 38.8009,40.8845 37.5,39.5C 36.1667,39.5 35.5,38.8333 35.5,37.5C 36.5,37.5 37.5,37.5 38.5,37.5C 38.5,33.8333 38.5,30.1667 38.5,26.5C 38.2053,24.2646 38.5386,22.2646 39.5,20.5 Z"/></g>
<g><path style="opacity:1" fill="#1d3f73" d="M 46.5,30.5 C 47.5,30.5 48.5,30.5 49.5,30.5C 48.9094,31.1515 48.2427,31.8182 47.5,32.5C 48.1667,32.8333 48.8333,33.1667 49.5,33.5C 48.675,34.3857 47.675,34.719 46.5,34.5C 46.5,33.5 46.5,32.5 46.5,31.5C 46.5,31.1667 46.5,30.8333 46.5,30.5 Z"/></g>
<g><path style="opacity:1" fill="#f6d54a" d="M 37.5,30.5 C 37.5,31.5 37.5,32.5 37.5,33.5C 36.8333,33.8333 36.1667,34.1667 35.5,34.5C 33.5168,34.8432 32.1834,34.1765 31.5,32.5C 32.5,32.5 33.5,32.5 34.5,32.5C 34.4017,29.7524 35.4017,29.0857 37.5,30.5 Z"/></g>
<g><path style="opacity:1" fill="#a0e5e0" d="M 46.5,30.5 C 46.5,30.8333 46.5,31.1667 46.5,31.5C 45.5655,32.5676 45.2322,33.901 45.5,35.5C 44.1667,35.5 42.8333,35.5 41.5,35.5C 41.5,34.8333 41.5,34.1667 41.5,33.5C 41.5,32.5 41.5,31.5 41.5,30.5C 43.2837,29.2801 44.9504,29.2801 46.5,30.5 Z"/></g>
<g><path style="opacity:1" fill="#dbeef8" d="M 57.5,10.5 C 58.4511,11.9187 58.7845,13.5853 58.5,15.5C 58.5,16.8333 58.5,18.1667 58.5,19.5C 58.5,19.8333 58.5,20.1667 58.5,20.5C 58.2504,29.1874 58.5837,32.1874 59.5,29.5C 60.1499,29.1961 60.8165,28.8627 61.5,28.5C 62.1757,29.6016 62.8423,30.6016 63.5,31.5C 63.5,33.5 63.5,35.5 63.5,37.5C 62.8333,37.5 62.1667,37.5 61.5,37.5C 60.5,37.5 59.5,37.5 58.5,37.5C 58.7947,39.7354 58.4614,41.7354 57.5,43.5C 57.5,32.5 57.5,21.5 57.5,10.5 Z"/></g>
<g><path style="opacity:1" fill="#dff3f8" d="M -0.5,28.5 C -0.166667,28.5 0.166667,28.5 0.5,28.5C 1.47944,31.6248 1.81277,34.9581 1.5,38.5C 1.15829,39.3382 0.491622,39.6716 -0.5,39.5C -0.5,35.8333 -0.5,32.1667 -0.5,28.5 Z"/></g>
<g><path style="opacity:1" fill="#91dfc4" d="M 22.5,31.5 C 23.8333,31.5 25.1667,31.5 26.5,31.5C 26.4021,33.5529 27.0687,35.2196 28.5,36.5C 28.5,36.8333 28.5,37.1667 28.5,37.5C 25.7212,37.2786 23.0545,37.612 20.5,38.5C 21.4552,36.2543 22.1218,33.921 22.5,31.5 Z"/></g>
<g><path style="opacity:1" fill="#cbe1d4" d="M 27.5,28.5 C 27.4021,30.5529 28.0687,32.2196 29.5,33.5C 29.9704,34.6935 30.9704,35.3601 32.5,35.5C 33.7261,35.4805 34.7261,35.1471 35.5,34.5C 36.1667,34.1667 36.8333,33.8333 37.5,33.5C 37.3059,35.9118 35.9726,36.9118 33.5,36.5C 32.8333,36.5 32.1667,36.5 31.5,36.5C 30.5,36.5 29.5,36.5 28.5,36.5C 27.0687,35.2196 26.4021,33.5529 26.5,31.5C 26.2627,30.209 26.596,29.209 27.5,28.5 Z"/></g>
<g><path style="opacity:1" fill="#c0e0fb" d="M 21.5,31.5 C 21.8333,31.5 22.1667,31.5 22.5,31.5C 22.1218,33.921 21.4552,36.2543 20.5,38.5C 19.5084,38.3284 18.8417,38.6618 18.5,39.5C 16.8525,37.6736 14.8525,36.3403 12.5,35.5C 12.5,35.1667 12.5,34.8333 12.5,34.5C 16.0287,34.4433 19.0287,33.4433 21.5,31.5 Z"/></g>
<g><path style="opacity:1" fill="#5ec88e" d="M 53.5,31.5 C 53.5,33.1667 53.5,34.8333 53.5,36.5C 53.5,36.8333 53.5,37.1667 53.5,37.5C 49.5,37.5 45.5,37.5 41.5,37.5C 41.5,36.8333 41.5,36.1667 41.5,35.5C 42.8333,35.5 44.1667,35.5 45.5,35.5C 47.5,35.5 49.5,35.5 51.5,35.5C 52.1667,34.1667 52.8333,32.8333 53.5,31.5 Z"/></g>
<g><path style="opacity:1" fill="#bde0fa" d="M 12.5,35.5 C 14.8525,36.3403 16.8525,37.6736 18.5,39.5C 17.4341,40.6921 16.6008,40.3588 16,38.5C 15.6847,40.5856 15.1847,42.5856 14.5,44.5C 13.8333,44.5 13.1667,44.5 12.5,44.5C 12.5,41.5 12.5,38.5 12.5,35.5 Z"/></g>
<g><path style="opacity:1" fill="#c6dfe4" d="M 37.5,26.5 C 37.8333,26.5 38.1667,26.5 38.5,26.5C 38.5,30.1667 38.5,33.8333 38.5,37.5C 37.5,37.5 36.5,37.5 35.5,37.5C 34.5084,37.6716 33.8417,37.3382 33.5,36.5C 35.9726,36.9118 37.3059,35.9118 37.5,33.5C 37.5,32.5 37.5,31.5 37.5,30.5C 37.5,29.1667 37.5,27.8333 37.5,26.5 Z"/></g>
<g><path style="opacity:1" fill="#69d9a6" d="M 28.5,37.5 C 29.807,39.2232 29.807,41.0565 28.5,43C 25.7795,43.6015 23.1128,43.4349 20.5,42.5C 20.5,41.1667 20.5,39.8333 20.5,38.5C 23.0545,37.612 25.7212,37.2786 28.5,37.5 Z"/></g>
<g><path style="opacity:1" fill="#e5f1fb" d="M 3.5,35.5 C 3.5,37.5 3.5,39.5 3.5,41.5C 2.36339,42.7888 1.03005,43.7888 -0.5,44.5C -0.5,42.8333 -0.5,41.1667 -0.5,39.5C 0.491622,39.6716 1.15829,39.3382 1.5,38.5C 2.16667,37.5 2.83333,36.5 3.5,35.5 Z"/></g>
<g><path style="opacity:1" fill="#acdaf0" d="M 9.5,14.5 C 9.5,15.5 9.5,16.5 9.5,17.5C 9.5,27.5 9.5,37.5 9.5,47.5C 8.5,47.5 7.5,47.5 6.5,47.5C 6.5,43.1667 6.5,38.8333 6.5,34.5C 7.11742,34.3893 7.61742,34.056 8,33.5C 8.49949,27.5092 8.66615,21.5092 8.5,15.5C 8.5,14.8333 8.83333,14.5 9.5,14.5 Z"/></g>
<g><path style="opacity:1" fill="#e5d67d" d="M 41.5,37.5 C 45.5,37.5 49.5,37.5 53.5,37.5C 53.5,40.8333 53.5,44.1667 53.5,47.5C 51.5,47.5 49.5,47.5 47.5,47.5C 45.8333,47.5 44.1667,47.5 42.5,47.5C 42.8417,46.6618 43.5084,46.3284 44.5,46.5C 46.8333,46.5 49.1667,46.5 51.5,46.5C 51.8016,43.9407 51.4682,41.6074 50.5,39.5C 49.5,39.5 48.5,39.5 47.5,39.5C 46.8333,39.5 46.1667,39.5 45.5,39.5C 44.1667,39.8333 42.8333,40.1667 41.5,40.5C 41.5,39.5 41.5,38.5 41.5,37.5 Z"/></g>
<g><path style="opacity:1" fill="#def8fb" d="M 61.5,37.5 C 61.8441,40.6201 61.1775,43.4534 59.5,46C 59.5699,46.7648 59.9033,47.2648 60.5,47.5C 60.2172,48.2891 59.7172,48.9558 59,49.5C 58.7679,48.2625 58.2679,47.2625 57.5,46.5C 57.5,45.5 57.5,44.5 57.5,43.5C 58.4614,41.7354 58.7947,39.7354 58.5,37.5C 59.5,37.5 60.5,37.5 61.5,37.5 Z"/></g>
<g><path style="opacity:1" fill="#aad8ef" d="M 47.5,39.5 C 48.5,39.5 49.5,39.5 50.5,39.5C 50.7947,41.7354 50.4614,43.7354 49.5,45.5C 48.8333,43.5 48.1667,41.5 47.5,39.5 Z"/></g>
<g><path style="opacity:1" fill="#bfe0fc" d="M 31.5,36.5 C 32.1667,36.5 32.8333,36.5 33.5,36.5C 33.8417,37.3382 34.5084,37.6716 35.5,37.5C 35.5,38.8333 36.1667,39.5 37.5,39.5C 37.5858,40.4959 37.2524,41.3292 36.5,42C 34.8659,42.4935 33.1992,42.6602 31.5,42.5C 30.1667,40.5 30.1667,38.5 31.5,36.5 Z"/></g>
<g><path style="opacity:1" fill="#407672" d="M 39.5,33.5 C 40.1667,33.5 40.8333,33.5 41.5,33.5C 41.5,34.1667 41.5,34.8333 41.5,35.5C 41.5,36.1667 41.5,36.8333 41.5,37.5C 41.5,38.5 41.5,39.5 41.5,40.5C 41.5,42.8333 41.5,45.1667 41.5,47.5C 41.1667,47.5 40.8333,47.5 40.5,47.5C 40.5,47.1667 40.5,46.8333 40.5,46.5C 40.7373,45.209 40.404,44.209 39.5,43.5C 39.5,40.1667 39.5,36.8333 39.5,33.5 Z"/></g>
<g><path style="opacity:1" fill="#b5e4f6" d="M 18.5,39.5 C 18.8417,38.6618 19.5084,38.3284 20.5,38.5C 20.5,39.8333 20.5,41.1667 20.5,42.5C 20.8333,43.1667 21.1667,43.8333 21.5,44.5C 19.1667,44.5 16.8333,44.5 14.5,44.5C 15.1847,42.5856 15.6847,40.5856 16,38.5C 16.6008,40.3588 17.4341,40.6921 18.5,39.5 Z"/></g>
<g><path style="opacity:1" fill="#b7dff5" d="M 37.5,39.5 C 38.8009,40.8845 38.8009,42.3845 37.5,44C 38.0944,44.4643 38.7611,44.631 39.5,44.5C 37.3926,45.4682 35.0593,45.8016 32.5,45.5C 32.4431,44.391 32.1098,43.391 31.5,42.5C 33.1992,42.6602 34.8659,42.4935 36.5,42C 37.2524,41.3292 37.5858,40.4959 37.5,39.5 Z"/></g>
<g><path style="opacity:1" fill="#b3e9f3" d="M 28.5,37.5 C 28.5,37.1667 28.5,36.8333 28.5,36.5C 29.5,36.5 30.5,36.5 31.5,36.5C 30.1667,38.5 30.1667,40.5 31.5,42.5C 32.1098,43.391 32.4431,44.391 32.5,45.5C 31.5,45.5 30.5,45.5 29.5,45.5C 27.0521,44.5269 24.3854,44.1936 21.5,44.5C 21.1667,43.8333 20.8333,43.1667 20.5,42.5C 23.1128,43.4349 25.7795,43.6015 28.5,43C 29.807,41.0565 29.807,39.2232 28.5,37.5 Z"/></g>
<g><path style="opacity:1" fill="#d4d8ac" d="M 45.5,39.5 C 44.9111,41.3519 44.2444,43.1852 43.5,45C 43.7284,45.3988 44.0618,45.5654 44.5,45.5C 44.5,45.8333 44.5,46.1667 44.5,46.5C 43.5084,46.3284 42.8417,46.6618 42.5,47.5C 42.1667,47.5 41.8333,47.5 41.5,47.5C 41.5,45.1667 41.5,42.8333 41.5,40.5C 42.8333,40.1667 44.1667,39.8333 45.5,39.5 Z"/></g>
<g><path style="opacity:1" fill="#285a71" d="M 45.5,39.5 C 46.1667,39.5 46.8333,39.5 47.5,39.5C 48.1667,41.5 48.8333,43.5 49.5,45.5C 47.7659,44.438 46.0992,44.438 44.5,45.5C 44.0618,45.5654 43.7284,45.3988 43.5,45C 44.2444,43.1852 44.9111,41.3519 45.5,39.5 Z"/></g>
<g><path style="opacity:1" fill="#d5ebf4" d="M 5.5,10.5 C 5.5,24.1667 5.5,37.8333 5.5,51.5C 4.83333,51.5 4.16667,51.5 3.5,51.5C 2.04125,51.5674 0.707917,51.2341 -0.5,50.5C -0.5,48.5 -0.5,46.5 -0.5,44.5C 1.03005,43.7888 2.36339,42.7888 3.5,41.5C 4.4938,32.0144 4.82713,22.3478 4.5,12.5C 4.32842,11.5084 4.66175,10.8417 5.5,10.5 Z"/></g>
<g><path style="opacity:1" fill="#134771" d="M 39.5,43.5 C 40.404,44.209 40.7373,45.209 40.5,46.5C 34.9738,46.8214 29.6405,46.4881 24.5,45.5C 26.1667,45.5 27.8333,45.5 29.5,45.5C 30.5,45.5 31.5,45.5 32.5,45.5C 35.0593,45.8016 37.3926,45.4682 39.5,44.5C 39.5,44.1667 39.5,43.8333 39.5,43.5 Z"/></g>
<g><path style="opacity:1" fill="#cbdbb4" d="M 50.5,39.5 C 51.4682,41.6074 51.8016,43.9407 51.5,46.5C 49.1667,46.5 46.8333,46.5 44.5,46.5C 44.5,46.1667 44.5,45.8333 44.5,45.5C 46.0992,44.438 47.7659,44.438 49.5,45.5C 50.4614,43.7354 50.7947,41.7354 50.5,39.5 Z"/></g>
<g><path style="opacity:1" fill="#e6f0f8" d="M 61.5,37.5 C 62.1667,37.5 62.8333,37.5 63.5,37.5C 63.5,40.5 63.5,43.5 63.5,46.5C 62.609,47.1098 61.609,47.4431 60.5,47.5C 59.9033,47.2648 59.5699,46.7648 59.5,46C 61.1775,43.4534 61.8441,40.6201 61.5,37.5 Z"/></g>
<g><path style="opacity:1" fill="#bfecfe" d="M 6.5,47.5 C 7.5,47.5 8.5,47.5 9.5,47.5C 11.5,47.5 13.5,47.5 15.5,47.5C 19.8333,48.1667 24.1667,48.8333 28.5,49.5C 20.7572,50.1299 13.4238,49.4633 6.5,47.5 Z"/></g>
<g><path style="opacity:1" fill="#c6e8f6" d="M 15.5,47.5 C 23.8333,47.5 32.1667,47.5 40.5,47.5C 40.8333,47.5 41.1667,47.5 41.5,47.5C 41.8333,47.5 42.1667,47.5 42.5,47.5C 44.1667,47.5 45.8333,47.5 47.5,47.5C 50.2869,48.4767 53.2869,48.81 56.5,48.5C 56.5,48.8333 56.5,49.1667 56.5,49.5C 47.1667,49.5 37.8333,49.5 28.5,49.5C 24.1667,48.8333 19.8333,48.1667 15.5,47.5 Z"/></g>
<g><path style="opacity:1" fill="#bfe2e4" d="M 53.5,36.5 C 53.8746,40.4425 54.8746,44.1091 56.5,47.5C 56.5,47.8333 56.5,48.1667 56.5,48.5C 53.2869,48.81 50.2869,48.4767 47.5,47.5C 49.5,47.5 51.5,47.5 53.5,47.5C 53.5,44.1667 53.5,40.8333 53.5,37.5C 53.5,37.1667 53.5,36.8333 53.5,36.5 Z"/></g>
<g><path style="opacity:1" fill="#e0f1fb" d="M 57.5,46.5 C 58.2679,47.2625 58.7679,48.2625 59,49.5C 59.7172,48.9558 60.2172,48.2891 60.5,47.5C 61.609,47.4431 62.609,47.1098 63.5,46.5C 63.5,48.1667 63.5,49.8333 63.5,51.5C 61.5,51.5 59.5,51.5 57.5,51.5C 57.5,49.8333 57.5,48.1667 57.5,46.5 Z"/></g>
<g><path style="opacity:1" fill="#6d96af" d="M 5.5,10.5 C 6.16667,10.5 6.5,10.8333 6.5,11.5C 6.5,12.8333 6.5,14.1667 6.5,15.5C 6.5,21.8333 6.5,28.1667 6.5,34.5C 6.5,38.8333 6.5,43.1667 6.5,47.5C 13.4238,49.4633 20.7572,50.1299 28.5,49.5C 37.8333,49.5 47.1667,49.5 56.5,49.5C 49.3524,50.4916 42.0191,50.825 34.5,50.5C 32.5853,50.2155 30.9187,50.5489 29.5,51.5C 21.5,51.5 13.5,51.5 5.5,51.5C 5.5,37.8333 5.5,24.1667 5.5,10.5 Z"/></g>
<g><path style="opacity:1" fill="#688ba1" d="M 57.5,10.5 C 57.5,21.5 57.5,32.5 57.5,43.5C 57.5,44.5 57.5,45.5 57.5,46.5C 57.5,48.1667 57.5,49.8333 57.5,51.5C 49.8333,51.5 42.1667,51.5 34.5,51.5C 34.5,51.1667 34.5,50.8333 34.5,50.5C 42.0191,50.825 49.3524,50.4916 56.5,49.5C 56.5,49.1667 56.5,48.8333 56.5,48.5C 56.5,48.1667 56.5,47.8333 56.5,47.5C 56.5,40.1667 56.5,32.8333 56.5,25.5C 56.5,21.5 56.5,17.5 56.5,13.5C 56.5,12.8333 56.5,12.1667 56.5,11.5C 56.5,10.8333 56.8333,10.5 57.5,10.5 Z"/></g>
<g><path style="opacity:1" fill="#e7fafd" d="M 5.5,51.5 C 13.5,51.5 21.5,51.5 29.5,51.5C 29.5,52.5 29.5,53.5 29.5,54.5C 28.1667,54.5 26.8333,54.5 25.5,54.5C 25.1583,53.6618 24.4916,53.3284 23.5,53.5C 21.0521,52.5269 18.3854,52.1936 15.5,52.5C 11.9581,52.8128 8.62482,52.4794 5.5,51.5 Z"/></g>
<g><path style="opacity:1" fill="#e4fbfe" d="M 34.5,51.5 C 42.1667,51.5 49.8333,51.5 57.5,51.5C 54.3752,52.4794 51.0419,52.8128 47.5,52.5C 44.8127,52.3359 42.146,52.5026 39.5,53C 40.056,53.3826 40.3893,53.8826 40.5,54.5C 40.1667,54.5 39.8333,54.5 39.5,54.5C 37.8333,54.5 36.1667,54.5 34.5,54.5C 34.5,53.5 34.5,52.5 34.5,51.5 Z"/></g>
<g><path style="opacity:1" fill="#e8f4f5" d="M -0.5,50.5 C 0.707917,51.2341 2.04125,51.5674 3.5,51.5C 4.10978,52.391 4.44312,53.391 4.5,54.5C 2.83333,54.5 1.16667,54.5 -0.5,54.5C -0.5,53.1667 -0.5,51.8333 -0.5,50.5 Z"/></g>
<g><path style="opacity:1" fill="#e1f4f8" d="M 3.5,51.5 C 4.16667,51.5 4.83333,51.5 5.5,51.5C 8.62482,52.4794 11.9581,52.8128 15.5,52.5C 14.1667,53.1667 12.8333,53.8333 11.5,54.5C 9.24359,53.5615 6.91026,53.5615 4.5,54.5C 4.44312,53.391 4.10978,52.391 3.5,51.5 Z"/></g>
<g><path style="opacity:1" fill="#e2f4f8" d="M 57.5,51.5 C 59.5,51.5 61.5,51.5 63.5,51.5C 63.5,52.1667 63.5,52.8333 63.5,53.5C 62.1667,53.5 60.8333,53.5 59.5,53.5C 58.0413,53.4326 56.7079,53.7659 55.5,54.5C 53.0483,54.0139 50.3817,54.0139 47.5,54.5C 47.5,53.8333 47.5,53.1667 47.5,52.5C 51.0419,52.8128 54.3752,52.4794 57.5,51.5 Z"/></g>
<g><path style="opacity:1" fill="#e5f2f3" d="M 15.5,52.5 C 18.3854,52.1936 21.0521,52.5269 23.5,53.5C 21.6208,54.3414 19.6208,54.6747 17.5,54.5C 16.8333,54.5 16.1667,54.5 15.5,54.5C 14.1667,54.5 12.8333,54.5 11.5,54.5C 12.8333,53.8333 14.1667,53.1667 15.5,52.5 Z"/></g>
<g><path style="opacity:1" fill="#e7f2f5" d="M 47.5,52.5 C 47.5,53.1667 47.5,53.8333 47.5,54.5C 46.1667,54.5 44.8333,54.5 43.5,54.5C 42.5,54.5 41.5,54.5 40.5,54.5C 40.3893,53.8826 40.056,53.3826 39.5,53C 42.146,52.5026 44.8127,52.3359 47.5,52.5 Z"/></g>
<g><path style="opacity:1" fill="#e4f0fc" d="M 11.5,54.5 C 12.8333,54.5 14.1667,54.5 15.5,54.5C 15.5,55.1667 15.5,55.8333 15.5,56.5C 13.7376,56.6427 12.0709,56.3094 10.5,55.5C 9.52242,55.9767 8.68909,56.6433 8,57.5C 7.69238,56.6919 7.19238,56.0253 6.5,55.5C 5.15848,57.0049 3.49181,57.6715 1.5,57.5C 1.15829,56.6618 0.491622,56.3284 -0.5,56.5C -0.5,55.8333 -0.5,55.1667 -0.5,54.5C 1.16667,54.5 2.83333,54.5 4.5,54.5C 6.91026,53.5615 9.24359,53.5615 11.5,54.5 Z"/></g>
<g><path style="opacity:1" fill="#487390" d="M 34.5,50.5 C 34.5,50.8333 34.5,51.1667 34.5,51.5C 34.5,52.5 34.5,53.5 34.5,54.5C 36.1667,54.5 37.8333,54.5 39.5,54.5C 39.5,54.8333 39.5,55.1667 39.5,55.5C 34.5,55.5 29.5,55.5 24.5,55.5C 24.5,55.1667 24.5,54.8333 24.5,54.5C 24.8333,54.5 25.1667,54.5 25.5,54.5C 26.8333,54.5 28.1667,54.5 29.5,54.5C 29.5,53.5 29.5,52.5 29.5,51.5C 30.9187,50.5489 32.5853,50.2155 34.5,50.5 Z"/></g>
<g><path style="opacity:1" fill="#c4e5f9" d="M 30.5,51.5 C 31.5,51.5 32.5,51.5 33.5,51.5C 33.5,52.5 33.5,53.5 33.5,54.5C 32.5,54.5 31.5,54.5 30.5,54.5C 30.5,53.5 30.5,52.5 30.5,51.5 Z"/></g>
<g><path style="opacity:1" fill="#e2f1fd" d="M 55.5,54.5 C 54.5084,54.3284 53.8417,54.6618 53.5,55.5C 52.2223,55.7822 51.2223,56.4489 50.5,57.5C 50.189,56.5222 49.5223,55.8555 48.5,55.5C 46.8716,56.5353 45.205,56.5353 43.5,55.5C 43.5,55.1667 43.5,54.8333 43.5,54.5C 44.8333,54.5 46.1667,54.5 47.5,54.5C 50.3817,54.0139 53.0483,54.0139 55.5,54.5 Z"/></g>
<g><path style="opacity:1" fill="#e6f0fd" d="M 59.5,53.5 C 59.6567,54.8734 59.49,56.2068 59,57.5C 57.6667,56.1667 56.3333,56.1667 55,57.5C 54.2828,56.9558 53.7828,56.2891 53.5,55.5C 53.8417,54.6618 54.5084,54.3284 55.5,54.5C 56.7079,53.7659 58.0413,53.4326 59.5,53.5 Z"/></g>
<g><path style="opacity:1" fill="#e6f5fa" d="M 15.5,56.5 C 15.5,57.1667 15.5,57.8333 15.5,58.5C 10.6367,58.8195 5.97005,58.4861 1.5,57.5C 3.49181,57.6715 5.15848,57.0049 6.5,55.5C 7.19238,56.0253 7.69238,56.6919 8,57.5C 8.68909,56.6433 9.52242,55.9767 10.5,55.5C 12.0709,56.3094 13.7376,56.6427 15.5,56.5 Z"/></g>
<g><path style="opacity:1" fill="#e3f3f9" d="M 59.5,53.5 C 60.8333,53.5 62.1667,53.5 63.5,53.5C 63.5,55.1667 63.5,56.8333 63.5,58.5C 58.4791,58.1932 53.1458,58.5265 47.5,59.5C 47.5,59.1667 47.5,58.8333 47.5,58.5C 48.3652,58.4361 49.3652,58.1027 50.5,57.5C 51.2223,56.4489 52.2223,55.7822 53.5,55.5C 53.7828,56.2891 54.2828,56.9558 55,57.5C 56.3333,56.1667 57.6667,56.1667 59,57.5C 59.49,56.2068 59.6567,54.8734 59.5,53.5 Z"/></g>
<g><path style="opacity:1" fill="#d3eaf7" d="M 23.5,53.5 C 24.4916,53.3284 25.1583,53.6618 25.5,54.5C 25.1667,54.5 24.8333,54.5 24.5,54.5C 23.5489,55.9187 23.2155,57.5853 23.5,59.5C 22.71,58.3915 22.21,57.0581 22,55.5C 21.51,56.7932 21.3433,58.1266 21.5,59.5C 18.001,59.741 17.6677,58.9076 20.5,57C 19.4293,56.1482 18.4293,55.3149 17.5,54.5C 19.6208,54.6747 21.6208,54.3414 23.5,53.5 Z"/></g>
<g><path style="opacity:1" fill="#dcf1fc" d="M 40.5,54.5 C 41.5,54.5 42.5,54.5 43.5,54.5C 43.5,54.8333 43.5,55.1667 43.5,55.5C 43.5,56.5 43.5,57.5 43.5,58.5C 44.8333,58.5 46.1667,58.5 47.5,58.5C 47.5,58.8333 47.5,59.1667 47.5,59.5C 46.1667,59.5 44.8333,59.5 43.5,59.5C 42.5,59.5 41.5,59.5 40.5,59.5C 40.5,57.8333 40.5,56.1667 40.5,54.5 Z"/></g>
<g><path style="opacity:1" fill="#e5f5fd" d="M 43.5,55.5 C 45.205,56.5353 46.8716,56.5353 48.5,55.5C 49.5223,55.8555 50.189,56.5222 50.5,57.5C 49.3652,58.1027 48.3652,58.4361 47.5,58.5C 46.1667,58.5 44.8333,58.5 43.5,58.5C 43.5,57.5 43.5,56.5 43.5,55.5 Z"/></g>
<g><path style="opacity:1" fill="#e4f3fc" d="M -0.5,58.5 C 0.166667,58.5 0.5,58.8333 0.5,59.5C 0.368989,60.2389 0.535656,60.9056 1,61.5C 2.88857,60.9026 4.7219,60.5693 6.5,60.5C 7.29755,60.9569 7.63088,61.6236 7.5,62.5C 4.83333,62.5 2.16667,62.5 -0.5,62.5C -0.5,61.1667 -0.5,59.8333 -0.5,58.5 Z"/></g>
<g><path style="opacity:1" fill="#e0f0f7" d="M -0.5,56.5 C 0.491622,56.3284 1.15829,56.6618 1.5,57.5C 5.97005,58.4861 10.6367,58.8195 15.5,58.5C 15.5,58.8333 15.5,59.1667 15.5,59.5C 10.5,59.5 5.5,59.5 0.5,59.5C 0.5,58.8333 0.166667,58.5 -0.5,58.5C -0.5,57.8333 -0.5,57.1667 -0.5,56.5 Z"/></g>
<g><path style="opacity:1" fill="#e4f3fb" d="M 15.5,54.5 C 16.1667,54.5 16.8333,54.5 17.5,54.5C 18.4293,55.3149 19.4293,56.1482 20.5,57C 17.6677,58.9076 18.001,59.741 21.5,59.5C 21.5386,60.7562 21.0386,61.7562 20,62.5C 19.15,61.5761 18.15,61.5761 17,62.5C 15.9701,62.1639 15.4701,61.4972 15.5,60.5C 15.5,60.1667 15.5,59.8333 15.5,59.5C 15.5,59.1667 15.5,58.8333 15.5,58.5C 15.5,57.8333 15.5,57.1667 15.5,56.5C 15.5,55.8333 15.5,55.1667 15.5,54.5 Z"/></g>
<g><path style="opacity:1" fill="#6f94a6" d="M 24.5,54.5 C 24.5,54.8333 24.5,55.1667 24.5,55.5C 24.5,55.8333 24.5,56.1667 24.5,56.5C 28.7147,58.4364 33.3814,59.1031 38.5,58.5C 39.404,57.791 39.7373,56.791 39.5,55.5C 39.5,55.1667 39.5,54.8333 39.5,54.5C 39.8333,54.5 40.1667,54.5 40.5,54.5C 40.5,56.1667 40.5,57.8333 40.5,59.5C 34.9252,60.4524 29.2586,60.7857 23.5,60.5C 23.5,60.1667 23.5,59.8333 23.5,59.5C 23.2155,57.5853 23.5489,55.9187 24.5,54.5 Z"/></g>
<g><path style="opacity:1" fill="#beebfe" d="M 24.5,56.5 C 29.6186,55.8969 34.2853,56.5636 38.5,58.5C 33.3814,59.1031 28.7147,58.4364 24.5,56.5 Z"/></g>
<g><path style="opacity:1" fill="#9ccce9" d="M 24.5,56.5 C 24.5,56.1667 24.5,55.8333 24.5,55.5C 29.5,55.5 34.5,55.5 39.5,55.5C 39.7373,56.791 39.404,57.791 38.5,58.5C 34.2853,56.5636 29.6186,55.8969 24.5,56.5 Z"/></g>
<g><path style="opacity:1" fill="#e2f1fd" d="M 0.5,59.5 C 5.5,59.5 10.5,59.5 15.5,59.5C 15.5,59.8333 15.5,60.1667 15.5,60.5C 12.5825,60.3651 9.91583,61.0318 7.5,62.5C 7.63088,61.6236 7.29755,60.9569 6.5,60.5C 4.7219,60.5693 2.88857,60.9026 1,61.5C 0.535656,60.9056 0.368989,60.2389 0.5,59.5 Z"/></g>
<g><path style="opacity:1" fill="#e4f6fb" d="M 40.5,59.5 C 41.5,59.5 42.5,59.5 43.5,59.5C 43.8039,60.1499 44.1373,60.8165 44.5,61.5C 48.7828,62.4922 53.1161,62.8256 57.5,62.5C 58.791,62.2627 59.791,62.596 60.5,63.5C 50.8333,63.5 41.1667,63.5 31.5,63.5C 29.3647,61.631 26.6981,60.9644 23.5,61.5C 23.5,61.1667 23.5,60.8333 23.5,60.5C 29.2586,60.7857 34.9252,60.4524 40.5,59.5 Z"/></g>
<g><path style="opacity:1" fill="#e1f0fd" d="M 63.5,58.5 C 63.5,59.1667 63.5,59.8333 63.5,60.5C 61.5,60.5 59.5,60.5 57.5,60.5C 53.9581,60.8128 50.6248,60.4794 47.5,59.5C 53.1458,58.5265 58.4791,58.1932 63.5,58.5 Z"/></g>
<g><path style="opacity:1" fill="#e4f6fc" d="M 23.5,59.5 C 23.5,59.8333 23.5,60.1667 23.5,60.5C 23.5,60.8333 23.5,61.1667 23.5,61.5C 22.8333,62.1667 22.1667,62.8333 21.5,63.5C 14.1667,63.5 6.83333,63.5 -0.5,63.5C -0.5,63.1667 -0.5,62.8333 -0.5,62.5C 2.16667,62.5 4.83333,62.5 7.5,62.5C 9.91583,61.0318 12.5825,60.3651 15.5,60.5C 15.4701,61.4972 15.9701,62.1639 17,62.5C 18.15,61.5761 19.15,61.5761 20,62.5C 21.0386,61.7562 21.5386,60.7562 21.5,59.5C 21.3433,58.1266 21.51,56.7932 22,55.5C 22.21,57.0581 22.71,58.3915 23.5,59.5 Z"/></g>
<g><path style="opacity:1" fill="#e6f4fd" d="M 43.5,59.5 C 44.8333,59.5 46.1667,59.5 47.5,59.5C 50.6248,60.4794 53.9581,60.8128 57.5,60.5C 57.5,61.1667 57.5,61.8333 57.5,62.5C 53.1161,62.8256 48.7828,62.4922 44.5,61.5C 44.1373,60.8165 43.8039,60.1499 43.5,59.5 Z"/></g>
<g><path style="opacity:1" fill="#e8f1fc" d="M 57.5,60.5 C 59.5,60.5 61.5,60.5 63.5,60.5C 63.5,61.5 63.5,62.5 63.5,63.5C 62.5,63.5 61.5,63.5 60.5,63.5C 59.791,62.596 58.791,62.2627 57.5,62.5C 57.5,61.8333 57.5,61.1667 57.5,60.5 Z"/></g>
<g><path style="opacity:1" fill="#e3f2fb" d="M 23.5,61.5 C 26.6981,60.9644 29.3647,61.631 31.5,63.5C 28.1667,63.5 24.8333,63.5 21.5,63.5C 22.1667,62.8333 22.8333,62.1667 23.5,61.5 Z"/></g>
</svg>
