<?xml version="1.0" encoding="UTF-8"?>
<!DOCTYPE svg PUBLIC "-//W3C//DTD SVG 1.1//EN" "http://www.w3.org/Graphics/SVG/1.1/DTD/svg11.dtd">
<svg xmlns="http://www.w3.org/2000/svg" version="1.1" width="24px" height="24px" style="shape-rendering:geometricPrecision; text-rendering:geometricPrecision; image-rendering:optimizeQuality; fill-rule:evenodd; clip-rule:evenodd" xmlns:xlink="http://www.w3.org/1999/xlink">
<g><path style="opacity:1" fill="#dfeef7" d="M -0.5,-0.5 C 2.5,-0.5 5.5,-0.5 8.5,-0.5C 8.5,0.166667 8.83333,0.5 9.5,0.5C 8.89022,1.39105 8.55688,2.39105 8.5,3.5C 6.16667,3.5 3.83333,3.5 1.5,3.5C 1.5,8.16667 1.5,12.8333 1.5,17.5C 0.833333,13.8333 0.166667,10.1667 -0.5,6.5C -0.5,4.16667 -0.5,1.83333 -0.5,-0.5 Z"/></g>
<g><path style="opacity:1" fill="#e2f1f9" d="M 8.5,-0.5 C 13.5,-0.5 18.5,-0.5 23.5,-0.5C 23.5,7.5 23.5,15.5 23.5,23.5C 23.1667,23.5 22.8333,23.5 22.5,23.5C 20.6309,22.8354 18.6309,22.1687 16.5,21.5C 18.2914,20.8302 19.9581,20.1635 21.5,19.5C 21.5,19.1667 21.5,18.8333 21.5,18.5C 21.5,13.5 21.5,8.5 21.5,3.5C 17.1119,3.43198 13.1119,2.43198 9.5,0.5C 8.83333,0.5 8.5,0.166667 8.5,-0.5 Z"/></g>
<g><path style="opacity:1" fill="#83add8" d="M 9.5,0.5 C 13.1119,2.43198 17.1119,3.43198 21.5,3.5C 21.5,8.5 21.5,13.5 21.5,18.5C 20.5489,17.0813 20.2155,15.4147 20.5,13.5C 20.3508,9.87672 19.1842,9.54339 17,12.5C 15.9889,11.9444 15.1556,11.2778 14.5,10.5C 14.5,9.16667 14.5,7.83333 14.5,6.5C 11.1667,6.5 7.83333,6.5 4.5,6.5C 3.95691,6.44001 3.62358,6.10667 3.5,5.5C 5.94682,4.97058 7.61349,4.30391 8.5,3.5C 8.55688,2.39105 8.89022,1.39105 9.5,0.5 Z"/></g>
<g><path style="opacity:1" fill="#f6bcfb" d="M 8.5,11.5 C 7.29208,12.2341 5.95875,12.5674 4.5,12.5C 4.5,11.1667 4.5,9.83333 4.5,8.5C 5.70792,7.76589 7.04125,7.43255 8.5,7.5C 8.5,8.83333 8.5,10.1667 8.5,11.5 Z"/></g>
<g><path style="opacity:1" fill="#8dbe99" d="M 14.5,10.5 C 15.1556,11.2778 15.9889,11.9444 17,12.5C 19.1842,9.54339 20.3508,9.87672 20.5,13.5C 16.1944,14.4228 15.8611,15.5895 19.5,17C 17.6131,17.7796 15.9464,17.6129 14.5,16.5C 14.5,14.5 14.5,12.5 14.5,10.5 Z"/></g>
<g><path style="opacity:1" fill="#b7def1" d="M 4.5,6.5 C 7.83333,6.5 11.1667,6.5 14.5,6.5C 14.5,7.83333 14.5,9.16667 14.5,10.5C 14.5,12.5 14.5,14.5 14.5,16.5C 11.1667,16.5 7.83333,16.5 4.5,16.5C 4.5,15.1667 4.5,13.8333 4.5,12.5C 5.95875,12.5674 7.29208,12.2341 8.5,11.5C 8.5,10.1667 8.5,8.83333 8.5,7.5C 7.04125,7.43255 5.70792,7.76589 4.5,8.5C 4.5,7.83333 4.5,7.16667 4.5,6.5 Z"/></g>
<g><path style="opacity:1" fill="#7be4ae" d="M 8.5,11.5 C 11.4595,14.2714 11.1261,15.2714 7.5,14.5C 8.12723,13.5832 8.46056,12.5832 8.5,11.5 Z"/></g>
<g><path style="opacity:1" fill="#fad85e" d="M 11.5,8.5 C 13.898,9.8823 14.0647,11.549 12,13.5C 10.2116,11.9769 10.0449,10.3102 11.5,8.5 Z"/></g>
<g><path style="opacity:1" fill="#e6f3fc" d="M -0.5,6.5 C 0.166667,10.1667 0.833333,13.8333 1.5,17.5C 3.27887,19.3435 5.61221,20.0102 8.5,19.5C 8.5,20.5 8.5,21.5 8.5,22.5C 10.924,22.8076 13.2573,22.4742 15.5,21.5C 15.2907,20.914 14.9574,20.414 14.5,20C 16.8098,19.5034 19.1432,19.3367 21.5,19.5C 19.9581,20.1635 18.2914,20.8302 16.5,21.5C 18.6309,22.1687 20.6309,22.8354 22.5,23.5C 14.8333,23.5 7.16667,23.5 -0.5,23.5C -0.5,17.8333 -0.5,12.1667 -0.5,6.5 Z"/></g>
<g><path style="opacity:1" fill="#99c1db" d="M 8.5,3.5 C 7.61349,4.30391 5.94682,4.97058 3.5,5.5C 3.62358,6.10667 3.95691,6.44001 4.5,6.5C 4.5,7.16667 4.5,7.83333 4.5,8.5C 4.5,9.83333 4.5,11.1667 4.5,12.5C 4.5,13.8333 4.5,15.1667 4.5,16.5C 7.83333,16.5 11.1667,16.5 14.5,16.5C 15.9464,17.6129 17.6131,17.7796 19.5,17C 15.8611,15.5895 16.1944,14.4228 20.5,13.5C 20.2155,15.4147 20.5489,17.0813 21.5,18.5C 21.5,18.8333 21.5,19.1667 21.5,19.5C 19.1432,19.3367 16.8098,19.5034 14.5,20C 14.9574,20.414 15.2907,20.914 15.5,21.5C 13.2573,22.4742 10.924,22.8076 8.5,22.5C 8.5,21.5 8.5,20.5 8.5,19.5C 5.61221,20.0102 3.27887,19.3435 1.5,17.5C 1.5,12.8333 1.5,8.16667 1.5,3.5C 3.83333,3.5 6.16667,3.5 8.5,3.5 Z"/></g>
</svg>
