<?xml version="1.0" encoding="UTF-8"?>
<!DOCTYPE svg PUBLIC "-//W3C//DTD SVG 1.1//EN" "http://www.w3.org/Graphics/SVG/1.1/DTD/svg11.dtd">
<svg xmlns="http://www.w3.org/2000/svg" version="1.1" width="48px" height="48px" style="shape-rendering:geometricPrecision; text-rendering:geometricPrecision; image-rendering:optimizeQuality; fill-rule:evenodd; clip-rule:evenodd" xmlns:xlink="http://www.w3.org/1999/xlink">
<g><path style="opacity:1" fill="#e5f2fb" d="M 37.5,-0.5 C 40.8333,-0.5 44.1667,-0.5 47.5,-0.5C 47.5,0.166667 47.5,0.833333 47.5,1.5C 46.209,1.26269 45.209,1.59603 44.5,2.5C 42.6656,1.50596 40.9989,1.50596 39.5,2.5C 36.8333,2.83333 34.1667,3.16667 31.5,3.5C 31.4142,2.5041 31.7476,1.67076 32.5,1C 34.3817,0.801916 36.0484,0.301916 37.5,-0.5 Z"/></g>
<g><path style="opacity:1" fill="#deeff8" d="M -0.5,-0.5 C 12.1667,-0.5 24.8333,-0.5 37.5,-0.5C 36.0484,0.301916 34.3817,0.801916 32.5,1C 31.7476,1.67076 31.4142,2.5041 31.5,3.5C 34.9207,5.20099 38.5874,6.53432 42.5,7.5C 37.9677,7.81822 33.6344,7.48489 29.5,6.5C 30.4614,4.73535 30.7947,2.73535 30.5,0.5C 27.5,0.5 24.5,0.5 21.5,0.5C 19.2188,0.0772868 17.5521,0.743953 16.5,2.5C 14.0535,1.775 11.5535,1.10833 9,0.5C 6.03158,2.07833 2.86491,2.74499 -0.5,2.5C -0.5,1.5 -0.5,0.5 -0.5,-0.5 Z"/></g>
<g><path style="opacity:1" fill="#e4f9fc" d="M 21.5,0.5 C 24.5,0.5 27.5,0.5 30.5,0.5C 30.7947,2.73535 30.4614,4.73535 29.5,6.5C 29.7373,5.20895 29.404,4.20895 28.5,3.5C 28.5,2.83333 28.1667,2.5 27.5,2.5C 25.5,1.83333 23.5,1.16667 21.5,0.5 Z"/></g>
<g><path style="opacity:1" fill="#e5f0fe" d="M 16.5,2.5 C 16.5,3.16667 16.5,3.83333 16.5,4.5C 14.9245,3.92497 13.2578,3.59164 11.5,3.5C 7.71277,4.99517 3.71277,5.66184 -0.5,5.5C -0.5,4.5 -0.5,3.5 -0.5,2.5C 2.86491,2.74499 6.03158,2.07833 9,0.5C 11.5535,1.10833 14.0535,1.775 16.5,2.5 Z"/></g>
<g><path style="opacity:1" fill="#e7effc" d="M 44.5,2.5 C 44.7373,3.79105 44.404,4.79105 43.5,5.5C 41.0274,5.91176 39.6941,4.91176 39.5,2.5C 40.9989,1.50596 42.6656,1.50596 44.5,2.5 Z"/></g>
<g><path style="opacity:1" fill="#d0ecf2" d="M 21.5,0.5 C 23.5,1.16667 25.5,1.83333 27.5,2.5C 24.4816,2.33537 21.4816,2.50204 18.5,3C 17.6634,4.01127 17.33,5.17793 17.5,6.5C 13.3656,7.48489 9.03225,7.81822 4.5,7.5C 8.76754,7.13069 12.7675,6.13069 16.5,4.5C 16.5,3.83333 16.5,3.16667 16.5,2.5C 17.5521,0.743953 19.2188,0.0772868 21.5,0.5 Z"/></g>
<g><path style="opacity:1" fill="#e3f5f5" d="M 47.5,1.5 C 47.5,3.5 47.5,5.5 47.5,7.5C 46.5,7.5 45.5,7.5 44.5,7.5C 44.1667,6.83333 43.8333,6.16667 43.5,5.5C 44.404,4.79105 44.7373,3.79105 44.5,2.5C 45.209,1.59603 46.209,1.26269 47.5,1.5 Z"/></g>
<g><path style="opacity:1" fill="#e6f6f9" d="M 16.5,4.5 C 12.7675,6.13069 8.76754,7.13069 4.5,7.5C 3.56552,8.56764 3.23219,9.90097 3.5,11.5C 2.56552,10.4324 2.23219,9.09903 2.5,7.5C 1.5,7.5 0.5,7.5 -0.5,7.5C -0.5,6.83333 -0.5,6.16667 -0.5,5.5C 3.71277,5.66184 7.71277,4.99517 11.5,3.5C 13.2578,3.59164 14.9245,3.92497 16.5,4.5 Z"/></g>
<g><path style="opacity:1" fill="#e0f7fa" d="M 39.5,2.5 C 39.6941,4.91176 41.0274,5.91176 43.5,5.5C 43.8333,6.16667 44.1667,6.83333 44.5,7.5C 44.6716,8.49162 44.3382,9.15829 43.5,9.5C 43.6716,8.50838 43.3382,7.84171 42.5,7.5C 38.5874,6.53432 34.9207,5.20099 31.5,3.5C 34.1667,3.16667 36.8333,2.83333 39.5,2.5 Z"/></g>
<g><path style="opacity:1" fill="#36657e" d="M 27.5,2.5 C 28.1667,2.5 28.5,2.83333 28.5,3.5C 27.4721,3.92582 26.1388,3.92582 24.5,3.5C 24.5,4.5 24.5,5.5 24.5,6.5C 26.099,6.23219 27.4324,6.56552 28.5,7.5C 24.7307,7.75599 21.0641,7.42266 17.5,6.5C 17.33,5.17793 17.6634,4.01127 18.5,3C 21.4816,2.50204 24.4816,2.33537 27.5,2.5 Z"/></g>
<g><path style="opacity:1" fill="#a3c6d5" d="M 19.5,3.5 C 20.5,3.5 21.5,3.5 22.5,3.5C 22.5,4.5 22.5,5.5 22.5,6.5C 21.5,6.5 20.5,6.5 19.5,6.5C 19.5,5.5 19.5,4.5 19.5,3.5 Z"/></g>
<g><path style="opacity:1" fill="#6998ae" d="M 17.5,6.5 C 21.0641,7.42266 24.7307,7.75599 28.5,7.5C 28.5,7.83333 28.5,8.16667 28.5,8.5C 20.8333,8.5 13.1667,8.5 5.5,8.5C 4.83333,10.5 4.16667,12.5 3.5,14.5C 3.5,14.1667 3.5,13.8333 3.5,13.5C 3.5,12.8333 3.5,12.1667 3.5,11.5C 3.23219,9.90097 3.56552,8.56764 4.5,7.5C 9.03225,7.81822 13.3656,7.48489 17.5,6.5 Z"/></g>
<g><path style="opacity:1" fill="#789eb6" d="M 28.5,3.5 C 29.404,4.20895 29.7373,5.20895 29.5,6.5C 33.6344,7.48489 37.9677,7.81822 42.5,7.5C 42.5,8.16667 42.1667,8.5 41.5,8.5C 39.8333,8.5 38.1667,8.5 36.5,8.5C 33.8333,8.5 31.1667,8.5 28.5,8.5C 28.5,8.16667 28.5,7.83333 28.5,7.5C 27.4324,6.56552 26.099,6.23219 24.5,6.5C 24.5,5.5 24.5,4.5 24.5,3.5C 26.1388,3.92582 27.4721,3.92582 28.5,3.5 Z"/></g>
<g><path style="opacity:1" fill="#c2f1fe" d="M 5.5,8.5 C 13.1667,8.5 20.8333,8.5 28.5,8.5C 31.1667,8.5 33.8333,8.5 36.5,8.5C 26.5,9.16667 16.5,9.83333 6.5,10.5C 6.5,11.8333 6.5,13.1667 6.5,14.5C 6.5,18.1667 6.5,21.8333 6.5,25.5C 6.16667,25.5 5.83333,25.5 5.5,25.5C 5.5,19.8333 5.5,14.1667 5.5,8.5 Z"/></g>
<g><path style="opacity:1" fill="#b6e2f9" d="M 36.5,8.5 C 38.1667,8.5 39.8333,8.5 41.5,8.5C 41.5,14.8333 41.5,21.1667 41.5,27.5C 41.1667,27.5 40.8333,27.5 40.5,27.5C 40.702,25.0504 40.3686,22.717 39.5,20.5C 40.4682,18.3926 40.8016,16.0593 40.5,13.5C 40.7373,12.209 40.404,11.209 39.5,10.5C 28.5,10.5 17.5,10.5 6.5,10.5C 16.5,9.83333 26.5,9.16667 36.5,8.5 Z"/></g>
<g><path style="opacity:1" fill="#e3f1fa" d="M -0.5,7.5 C 0.5,7.5 1.5,7.5 2.5,7.5C 2.23219,9.09903 2.56552,10.4324 3.5,11.5C 3.5,12.1667 3.5,12.8333 3.5,13.5C 2.16667,13.5 1.5,14.1667 1.5,15.5C 0.981812,20.9858 0.315145,26.3192 -0.5,31.5C -0.5,23.5 -0.5,15.5 -0.5,7.5 Z"/></g>
<g><path style="opacity:1" fill="#92b6cb" d="M 42.5,7.5 C 43.3382,7.84171 43.6716,8.50838 43.5,9.5C 43.5,13.1667 43.5,16.8333 43.5,20.5C 43.5,25.8333 43.5,31.1667 43.5,36.5C 42.8333,36.5 42.1667,36.5 41.5,36.5C 41.5,33.5 41.5,30.5 41.5,27.5C 41.5,21.1667 41.5,14.8333 41.5,8.5C 42.1667,8.5 42.5,8.16667 42.5,7.5 Z"/></g>
<g><path style="opacity:1" fill="#2277af" d="M 6.5,10.5 C 17.5,10.5 28.5,10.5 39.5,10.5C 30.3483,11.4936 21.015,11.8269 11.5,11.5C 10.0222,11.238 8.68884,11.5713 7.5,12.5C 7.62358,13.1067 7.95691,13.44 8.5,13.5C 8.5,13.8333 8.5,14.1667 8.5,14.5C 7.83333,14.5 7.16667,14.5 6.5,14.5C 6.5,13.1667 6.5,11.8333 6.5,10.5 Z"/></g>
<g><path style="opacity:1" fill="#e6f6fb" d="M 44.5,7.5 C 45.5,7.5 46.5,7.5 47.5,7.5C 47.5,11.5 47.5,15.5 47.5,19.5C 46.8386,18.2825 46.1719,16.9492 45.5,15.5C 45.6582,17.0115 45.3249,18.6782 44.5,20.5C 44.1667,20.5 43.8333,20.5 43.5,20.5C 43.5,16.8333 43.5,13.1667 43.5,9.5C 44.3382,9.15829 44.6716,8.49162 44.5,7.5 Z"/></g>
<g><path style="opacity:1" fill="#229ae9" d="M 39.5,10.5 C 40.404,11.209 40.7373,12.209 40.5,13.5C 40.1667,13.5 39.8333,13.5 39.5,13.5C 30.1667,12.8333 20.8333,12.1667 11.5,11.5C 21.015,11.8269 30.3483,11.4936 39.5,10.5 Z"/></g>
<g><path style="opacity:1" fill="#2b76be" d="M 11.5,11.5 C 20.8333,12.1667 30.1667,12.8333 39.5,13.5C 36.8333,13.5 34.1667,13.5 31.5,13.5C 31.5,15.1667 31.5,16.8333 31.5,18.5C 30.596,19.209 30.2627,20.209 30.5,21.5C 30.1667,21.5 29.8333,21.5 29.5,21.5C 29.5,19.8333 29.5,18.1667 29.5,16.5C 29.5,16.1667 29.5,15.8333 29.5,15.5C 22.9131,13.5388 15.9131,12.8721 8.5,13.5C 7.95691,13.44 7.62358,13.1067 7.5,12.5C 8.68884,11.5713 10.0222,11.238 11.5,11.5 Z"/></g>
<g><path style="opacity:1" fill="#bebfe8" d="M 39.5,13.5 C 39.8333,13.5 40.1667,13.5 40.5,13.5C 40.8016,16.0593 40.4682,18.3926 39.5,20.5C 36.3019,21.0356 33.6353,20.369 31.5,18.5C 31.5,16.8333 31.5,15.1667 31.5,13.5C 34.1667,13.5 36.8333,13.5 39.5,13.5 Z"/></g>
<g><path style="opacity:1" fill="#c0e1f7" d="M 18.5,15.5 C 22.1667,15.5 25.8333,15.5 29.5,15.5C 29.5,15.8333 29.5,16.1667 29.5,16.5C 28.391,16.5569 27.391,16.8902 26.5,17.5C 25.209,17.2627 24.209,17.596 23.5,18.5C 22.391,18.5569 21.391,18.8902 20.5,19.5C 19.8333,18.1667 19.1667,16.8333 18.5,15.5 Z"/></g>
<g><path style="opacity:1" fill="#bfddf6" d="M 8.5,13.5 C 15.9131,12.8721 22.9131,13.5388 29.5,15.5C 25.8333,15.5 22.1667,15.5 18.5,15.5C 18.1667,15.5 17.8333,15.5 17.5,15.5C 17.1667,15.5 16.8333,15.5 16.5,15.5C 16.1667,15.5 15.8333,15.5 15.5,15.5C 13.2776,15.178 11.4443,15.8446 10,17.5C 9.50335,19.8098 9.33669,22.1432 9.5,24.5C 9.16667,24.5 8.83333,24.5 8.5,24.5C 8.5,21.1667 8.5,17.8333 8.5,14.5C 8.5,14.1667 8.5,13.8333 8.5,13.5 Z"/></g>
<g><path style="opacity:1" fill="#c1e2f1" d="M 29.5,16.5 C 29.5,18.1667 29.5,19.8333 29.5,21.5C 29.5,22.8333 29.5,24.1667 29.5,25.5C 28.8386,26.7175 28.1719,28.0508 27.5,29.5C 25.512,31.1472 24.1787,30.8139 23.5,28.5C 25.1788,28.7148 26.1788,28.0481 26.5,26.5C 26.8333,25.8333 27.1667,25.1667 27.5,24.5C 28.1239,24.0831 28.4573,23.4164 28.5,22.5C 27.8131,20.8228 27.1465,19.1561 26.5,17.5C 27.391,16.8902 28.391,16.5569 29.5,16.5 Z"/></g>
<g><path style="opacity:1" fill="#3f648f" d="M 33.5,15.5 C 34.5,15.5 35.5,15.5 36.5,15.5C 36.9059,17.1092 36.9059,18.4425 36.5,19.5C 35.2679,18.8555 33.9346,18.6888 32.5,19C 33.3366,17.9887 33.67,16.8221 33.5,15.5 Z"/></g>
<g><path style="opacity:1" fill="#bfdffa" d="M 17.5,15.5 C 17.8333,15.5 18.1667,15.5 18.5,15.5C 19.1667,16.8333 19.8333,18.1667 20.5,19.5C 20.5,21.5 20.5,23.5 20.5,25.5C 19.7777,24.4489 18.7777,23.7822 17.5,23.5C 17.5,20.8333 17.5,18.1667 17.5,15.5 Z"/></g>
<g><path style="opacity:1" fill="#eabcf7" d="M 15.5,15.5 C 13.9577,16.1408 12.6243,17.1408 11.5,18.5C 13.9783,19.7224 14.9783,21.7224 14.5,24.5C 12.8333,24.5 11.1667,24.5 9.5,24.5C 9.33669,22.1432 9.50335,19.8098 10,17.5C 11.4443,15.8446 13.2776,15.178 15.5,15.5 Z"/></g>
<g><path style="opacity:1" fill="#f8a6f3" d="M 15.5,15.5 C 15.8333,15.5 16.1667,15.5 16.5,15.5C 15.2799,17.6633 15.2799,19.83 16.5,22C 16.3613,23.301 15.6946,24.1344 14.5,24.5C 14.9783,21.7224 13.9783,19.7224 11.5,18.5C 12.6243,17.1408 13.9577,16.1408 15.5,15.5 Z"/></g>
<g><path style="opacity:1" fill="#f0dc7d" d="M 26.5,17.5 C 27.1465,19.1561 27.8131,20.8228 28.5,22.5C 28.4573,23.4164 28.1239,24.0831 27.5,24.5C 26.9045,21.8875 26.0712,21.8875 25,24.5C 24.0656,23.1416 23.2323,21.8083 22.5,20.5C 22.8333,19.8333 23.1667,19.1667 23.5,18.5C 24.209,17.596 25.209,17.2627 26.5,17.5 Z"/></g>
<g><path style="opacity:1" fill="#e6fdfe" d="M 43.5,20.5 C 43.8333,20.5 44.1667,20.5 44.5,20.5C 44.5,24.1667 44.5,27.8333 44.5,31.5C 46.1177,33.6559 45.7843,35.3226 43.5,36.5C 43.5,31.1667 43.5,25.8333 43.5,20.5 Z"/></g>
<g><path style="opacity:1" fill="#e5fefe" d="M 3.5,13.5 C 3.5,13.8333 3.5,14.1667 3.5,14.5C 3.5,14.8333 3.5,15.1667 3.5,15.5C 3.5,21.5 3.5,27.5 3.5,33.5C 2.83333,27.5 2.16667,21.5 1.5,15.5C 1.5,14.1667 2.16667,13.5 3.5,13.5 Z"/></g>
<g><path style="opacity:1" fill="#a0cbe9" d="M 5.5,8.5 C 5.5,14.1667 5.5,19.8333 5.5,25.5C 5.5,29.1667 5.5,32.8333 5.5,36.5C 4.83333,29.5 4.16667,22.5 3.5,15.5C 3.5,15.1667 3.5,14.8333 3.5,14.5C 4.16667,12.5 4.83333,10.5 5.5,8.5 Z"/></g>
<g><path style="opacity:1" fill="#d6c8f5" d="M 16.5,15.5 C 16.8333,15.5 17.1667,15.5 17.5,15.5C 17.5,18.1667 17.5,20.8333 17.5,23.5C 17.1667,24.5 16.5,25.1667 15.5,25.5C 13.2646,25.7947 11.2646,25.4614 9.5,24.5C 11.1667,24.5 12.8333,24.5 14.5,24.5C 15.6946,24.1344 16.3613,23.301 16.5,22C 15.2799,19.83 15.2799,17.6633 16.5,15.5 Z"/></g>
<g><path style="opacity:1" fill="#f3d562" d="M 22.5,20.5 C 23.2323,21.8083 24.0656,23.1416 25,24.5C 26.0712,21.8875 26.9045,21.8875 27.5,24.5C 27.1667,25.1667 26.8333,25.8333 26.5,26.5C 21.7476,26.6586 20.4143,24.6586 22.5,20.5 Z"/></g>
<g><path style="opacity:1" fill="#85cac1" d="M 31.5,18.5 C 33.6353,20.369 36.3019,21.0356 39.5,20.5C 40.3686,22.717 40.702,25.0504 40.5,27.5C 40.1667,27.5 39.8333,27.5 39.5,27.5C 36.8333,27.5 34.1667,27.5 31.5,27.5C 31.7947,25.2646 31.4614,23.2646 30.5,21.5C 30.2627,20.209 30.596,19.209 31.5,18.5 Z"/></g>
<g><path style="opacity:1" fill="#2a678b" d="M 34.5,22.5 C 35.5,22.5 36.5,22.5 37.5,22.5C 37.5499,24.5901 36.5499,25.9234 34.5,26.5C 34.0941,25.4425 34.0941,24.1092 34.5,22.5 Z"/></g>
<g><path style="opacity:1" fill="#e3f1f8" d="M 47.5,19.5 C 47.5,24.1667 47.5,28.8333 47.5,33.5C 46.5,32.8333 45.5,32.1667 44.5,31.5C 44.5,27.8333 44.5,24.1667 44.5,20.5C 45.3249,18.6782 45.6582,17.0115 45.5,15.5C 46.1719,16.9492 46.8386,18.2825 47.5,19.5 Z"/></g>
<g><path style="opacity:1" fill="#55859b" d="M 6.5,14.5 C 7.16667,14.5 7.83333,14.5 8.5,14.5C 8.5,17.8333 8.5,21.1667 8.5,24.5C 8.5,27.5 8.5,30.5 8.5,33.5C 7.66175,33.8417 7.32842,34.5084 7.5,35.5C 6.52056,32.3752 6.18723,29.0419 6.5,25.5C 6.5,21.8333 6.5,18.1667 6.5,14.5 Z"/></g>
<g><path style="opacity:1" fill="#cde1ce" d="M 23.5,18.5 C 23.1667,19.1667 22.8333,19.8333 22.5,20.5C 20.4143,24.6586 21.7476,26.6586 26.5,26.5C 26.1788,28.0481 25.1788,28.7148 23.5,28.5C 23.1667,28.5 22.8333,28.5 22.5,28.5C 21.5987,27.7095 20.9321,26.7095 20.5,25.5C 20.5,23.5 20.5,21.5 20.5,19.5C 21.391,18.8902 22.391,18.5569 23.5,18.5 Z"/></g>
<g><path style="opacity:1" fill="#377b72" d="M 29.5,21.5 C 29.8333,21.5 30.1667,21.5 30.5,21.5C 31.4614,23.2646 31.7947,25.2646 31.5,27.5C 30.5318,29.6074 30.1984,31.9407 30.5,34.5C 29.8333,34.5 29.5,34.1667 29.5,33.5C 29.5,30.8333 29.5,28.1667 29.5,25.5C 29.5,24.1667 29.5,22.8333 29.5,21.5 Z"/></g>
<g><path style="opacity:1" fill="#d0db74" d="M 31.5,27.5 C 34.1667,27.5 36.8333,27.5 39.5,27.5C 39.1788,29.0481 38.1788,29.7148 36.5,29.5C 34.2188,29.9227 32.5521,29.256 31.5,27.5 Z"/></g>
<g><path style="opacity:1" fill="#7bdfb2" d="M 17.5,23.5 C 18.7777,23.7822 19.7777,24.4489 20.5,25.5C 20.9321,26.7095 21.5987,27.7095 22.5,28.5C 22.5,29.5 22.5,30.5 22.5,31.5C 20.1667,31.5 17.8333,31.5 15.5,31.5C 15.5,29.5 15.5,27.5 15.5,25.5C 16.5,25.1667 17.1667,24.5 17.5,23.5 Z"/></g>
<g><path style="opacity:1" fill="#bce7f1" d="M 29.5,25.5 C 29.5,28.1667 29.5,30.8333 29.5,33.5C 29.1667,33.5 28.8333,33.5 28.5,33.5C 26.8984,31.9261 24.8984,31.2594 22.5,31.5C 22.5,30.5 22.5,29.5 22.5,28.5C 22.8333,28.5 23.1667,28.5 23.5,28.5C 24.1787,30.8139 25.512,31.1472 27.5,29.5C 28.1719,28.0508 28.8386,26.7175 29.5,25.5 Z"/></g>
<g><path style="opacity:1" fill="#bae4fa" d="M 8.5,24.5 C 8.83333,24.5 9.16667,24.5 9.5,24.5C 11.2646,25.4614 13.2646,25.7947 15.5,25.5C 15.5,27.5 15.5,29.5 15.5,31.5C 15.5,32.1667 15.5,32.8333 15.5,33.5C 13.1667,33.5 10.8333,33.5 8.5,33.5C 8.5,30.5 8.5,27.5 8.5,24.5 Z"/></g>
<g><path style="opacity:1" fill="#2876c0" d="M 36.5,30.5 C 36.5,31.1667 36.5,31.8333 36.5,32.5C 32.5,31.8333 32.5,31.1667 36.5,30.5 Z"/></g>
<g><path style="opacity:1" fill="#cadbc3" d="M 39.5,27.5 C 39.8333,27.5 40.1667,27.5 40.5,27.5C 40.8064,30.3854 40.4731,33.0521 39.5,35.5C 39.1788,33.9519 38.1788,33.2852 36.5,33.5C 36.5,33.1667 36.5,32.8333 36.5,32.5C 36.5,31.8333 36.5,31.1667 36.5,30.5C 36.5,30.1667 36.5,29.8333 36.5,29.5C 38.1788,29.7148 39.1788,29.0481 39.5,27.5 Z"/></g>
<g><path style="opacity:1" fill="#e6f1f7" d="M 1.5,15.5 C 2.16667,21.5 2.83333,27.5 3.5,33.5C 3.5,33.8333 3.5,34.1667 3.5,34.5C 2.53178,36.6074 2.19845,38.9407 2.5,41.5C 1.5,41.5 0.5,41.5 -0.5,41.5C -0.5,38.1667 -0.5,34.8333 -0.5,31.5C 0.315145,26.3192 0.981812,20.9858 1.5,15.5 Z"/></g>
<g><path style="opacity:1" fill="#baeaf7" d="M 15.5,31.5 C 17.8333,31.5 20.1667,31.5 22.5,31.5C 24.8984,31.2594 26.8984,31.9261 28.5,33.5C 24.1667,33.5 19.8333,33.5 15.5,33.5C 15.5,32.8333 15.5,32.1667 15.5,31.5 Z"/></g>
<g><path style="opacity:1" fill="#84aaa1" d="M 31.5,27.5 C 32.5521,29.256 34.2188,29.9227 36.5,29.5C 36.5,29.8333 36.5,30.1667 36.5,30.5C 32.5,31.1667 32.5,31.8333 36.5,32.5C 36.5,32.8333 36.5,33.1667 36.5,33.5C 34.8561,33.7135 33.3561,33.3802 32,32.5C 31.5172,33.448 31.3505,34.448 31.5,35.5C 31.1667,35.5 30.8333,35.5 30.5,35.5C 30.5,35.1667 30.5,34.8333 30.5,34.5C 30.1984,31.9407 30.5318,29.6074 31.5,27.5 Z"/></g>
<g><path style="opacity:1" fill="#8eb5c8" d="M 3.5,15.5 C 4.16667,22.5 4.83333,29.5 5.5,36.5C 14.1667,36.5 22.8333,36.5 31.5,36.5C 34.8333,36.5 38.1667,36.5 41.5,36.5C 41.5,36.8333 41.5,37.1667 41.5,37.5C 28.9887,37.1714 16.6554,37.5048 4.5,38.5C 3.56552,37.4324 3.23219,36.099 3.5,34.5C 3.5,34.1667 3.5,33.8333 3.5,33.5C 3.5,27.5 3.5,21.5 3.5,15.5 Z"/></g>
<g><path style="opacity:1" fill="#4e87a2" d="M 8.5,33.5 C 10.8333,33.5 13.1667,33.5 15.5,33.5C 19.8333,33.5 24.1667,33.5 28.5,33.5C 28.8333,33.5 29.1667,33.5 29.5,33.5C 29.5,34.1667 29.8333,34.5 30.5,34.5C 30.5,34.8333 30.5,35.1667 30.5,35.5C 29.8333,35.5 29.1667,35.5 28.5,35.5C 21.8333,34.8333 15.1667,34.1667 8.5,33.5 Z"/></g>
<g><path style="opacity:1" fill="#356e8b" d="M 8.5,33.5 C 15.1667,34.1667 21.8333,34.8333 28.5,35.5C 21.5,35.5 14.5,35.5 7.5,35.5C 7.32842,34.5084 7.66175,33.8417 8.5,33.5 Z"/></g>
<g><path style="opacity:1" fill="#d4d591" d="M 36.5,33.5 C 38.1788,33.2852 39.1788,33.9519 39.5,35.5C 36.8333,35.5 34.1667,35.5 31.5,35.5C 31.3505,34.448 31.5172,33.448 32,32.5C 33.3561,33.3802 34.8561,33.7135 36.5,33.5 Z"/></g>
<g><path style="opacity:1" fill="#daeeeb" d="M 44.5,31.5 C 45.5,32.1667 46.5,32.8333 47.5,33.5C 47.5,34.5 47.5,35.5 47.5,36.5C 45.9519,36.8212 45.2852,37.8212 45.5,39.5C 44.5,39.5 43.5,39.5 42.5,39.5C 41.8333,39.5 41.1667,39.5 40.5,39.5C 40.5,39.1667 40.5,38.8333 40.5,38.5C 42.2239,38.5393 42.5573,38.206 41.5,37.5C 41.5,37.1667 41.5,36.8333 41.5,36.5C 42.1667,36.5 42.8333,36.5 43.5,36.5C 45.7843,35.3226 46.1177,33.6559 44.5,31.5 Z"/></g>
<g><path style="opacity:1" fill="#c3f2fe" d="M 5.5,25.5 C 5.83333,25.5 6.16667,25.5 6.5,25.5C 6.18723,29.0419 6.52056,32.3752 7.5,35.5C 14.5,35.5 21.5,35.5 28.5,35.5C 29.1667,35.5 29.8333,35.5 30.5,35.5C 30.8333,35.5 31.1667,35.5 31.5,35.5C 31.5,35.8333 31.5,36.1667 31.5,36.5C 22.8333,36.5 14.1667,36.5 5.5,36.5C 5.5,32.8333 5.5,29.1667 5.5,25.5 Z"/></g>
<g><path style="opacity:1" fill="#cbe8e8" d="M 40.5,27.5 C 40.8333,27.5 41.1667,27.5 41.5,27.5C 41.5,30.5 41.5,33.5 41.5,36.5C 38.1667,36.5 34.8333,36.5 31.5,36.5C 31.5,36.1667 31.5,35.8333 31.5,35.5C 34.1667,35.5 36.8333,35.5 39.5,35.5C 40.4731,33.0521 40.8064,30.3854 40.5,27.5 Z"/></g>
<g><path style="opacity:1" fill="#e4f7fb" d="M 3.5,34.5 C 3.23219,36.099 3.56552,37.4324 4.5,38.5C 6.83333,38.5 9.16667,38.5 11.5,38.5C 11.5,38.8333 11.5,39.1667 11.5,39.5C 10.5,39.5 9.5,39.5 8.5,39.5C 6.31455,39.7036 4.31455,40.3702 2.5,41.5C 2.19845,38.9407 2.53178,36.6074 3.5,34.5 Z"/></g>
<g><path style="opacity:1" fill="#ddf3f8" d="M 11.5,38.5 C 14.8984,38.1796 18.2317,38.513 21.5,39.5C 20.3112,40.4287 18.9778,40.762 17.5,40.5C 17.5,41.8333 17.5,43.1667 17.5,44.5C 15.9699,43.7888 14.6366,42.7888 13.5,41.5C 12.1667,41.5 11.5,40.8333 11.5,39.5C 11.5,39.1667 11.5,38.8333 11.5,38.5 Z"/></g>
<g><path style="opacity:1" fill="#e6f0fd" d="M 47.5,36.5 C 47.5,37.8333 47.5,39.1667 47.5,40.5C 45.3129,41.0485 44.6462,42.2152 45.5,44C 43.5692,44.9022 41.9025,46.0688 40.5,47.5C 39.5,47.5 38.5,47.5 37.5,47.5C 39.1776,44.8053 40.8442,42.1386 42.5,39.5C 43.5,39.5 44.5,39.5 45.5,39.5C 45.2852,37.8212 45.9519,36.8212 47.5,36.5 Z"/></g>
<g><path style="opacity:1" fill="#e3f3fc" d="M 8.5,39.5 C 8.85882,41.7659 8.19216,43.5993 6.5,45C 6.72845,45.3988 7.06178,45.5654 7.5,45.5C 5.83333,46.1667 4.16667,46.8333 2.5,47.5C 1.5,47.5 0.5,47.5 -0.5,47.5C -0.5,45.5 -0.5,43.5 -0.5,41.5C 0.5,41.5 1.5,41.5 2.5,41.5C 4.31455,40.3702 6.31455,39.7036 8.5,39.5 Z"/></g>
<g><path style="opacity:1" fill="#eeedfd" d="M 37.5,41.5 C 37.3059,43.9118 35.9726,44.9118 33.5,44.5C 32.5655,43.4324 32.2322,42.099 32.5,40.5C 34.2915,40.366 35.9582,40.6993 37.5,41.5 Z"/></g>
<g><path style="opacity:1" fill="#e5f3f7" d="M 47.5,40.5 C 47.5,42.8333 47.5,45.1667 47.5,47.5C 45.1667,47.5 42.8333,47.5 40.5,47.5C 41.9025,46.0688 43.5692,44.9022 45.5,44C 44.6462,42.2152 45.3129,41.0485 47.5,40.5 Z"/></g>
<g><path style="opacity:1" fill="#e2f4fd" d="M 40.5,39.5 C 41.1667,39.5 41.8333,39.5 42.5,39.5C 40.8442,42.1386 39.1776,44.8053 37.5,47.5C 36.1667,47.5 34.8333,47.5 33.5,47.5C 33.5,46.5 33.5,45.5 33.5,44.5C 35.9726,44.9118 37.3059,43.9118 37.5,41.5C 39.1788,41.7148 40.1788,41.0481 40.5,39.5 Z"/></g>
<g><path style="opacity:1" fill="#e3f1fc" d="M 8.5,39.5 C 9.5,39.5 10.5,39.5 11.5,39.5C 11.5,40.8333 12.1667,41.5 13.5,41.5C 12.5946,42.7024 12.5946,44.0357 13.5,45.5C 11.5,45.5 9.5,45.5 7.5,45.5C 7.06178,45.5654 6.72845,45.3988 6.5,45C 8.19216,43.5993 8.85882,41.7659 8.5,39.5 Z"/></g>
<g><path style="opacity:1" fill="#87acbf" d="M 4.5,38.5 C 16.6554,37.5048 28.9887,37.1714 41.5,37.5C 42.5573,38.206 42.2239,38.5393 40.5,38.5C 35.7863,38.1734 31.1196,38.5067 26.5,39.5C 27.6888,40.4287 29.0222,40.762 30.5,40.5C 30.5,41.8333 30.5,43.1667 30.5,44.5C 26.6002,45.4299 22.6002,45.7633 18.5,45.5C 17.8333,45.5 17.5,45.1667 17.5,44.5C 17.5,43.1667 17.5,41.8333 17.5,40.5C 18.9778,40.762 20.3112,40.4287 21.5,39.5C 18.2317,38.513 14.8984,38.1796 11.5,38.5C 9.16667,38.5 6.83333,38.5 4.5,38.5 Z"/></g>
<g><path style="opacity:1" fill="#dff9f9" d="M 40.5,38.5 C 40.5,38.8333 40.5,39.1667 40.5,39.5C 40.1788,41.0481 39.1788,41.7148 37.5,41.5C 35.9582,40.6993 34.2915,40.366 32.5,40.5C 32.2322,42.099 32.5655,43.4324 33.5,44.5C 33.5,45.5 33.5,46.5 33.5,47.5C 32.8333,47.5 32.1667,47.5 31.5,47.5C 31.4431,46.391 31.1098,45.391 30.5,44.5C 30.5,43.1667 30.5,41.8333 30.5,40.5C 29.0222,40.762 27.6888,40.4287 26.5,39.5C 31.1196,38.5067 35.7863,38.1734 40.5,38.5 Z"/></g>
<g><path style="opacity:1" fill="#e2f3fd" d="M 13.5,41.5 C 14.6366,42.7888 15.9699,43.7888 17.5,44.5C 17.5,45.1667 17.8333,45.5 18.5,45.5C 18.1667,46.1667 17.8333,46.8333 17.5,47.5C 16.5,47.5 15.5,47.5 14.5,47.5C 14.6716,46.5084 14.3382,45.8417 13.5,45.5C 12.5946,44.0357 12.5946,42.7024 13.5,41.5 Z"/></g>
<g><path style="opacity:1" fill="#e7f7f9" d="M 30.5,44.5 C 31.1098,45.391 31.4431,46.391 31.5,47.5C 26.8333,47.5 22.1667,47.5 17.5,47.5C 17.8333,46.8333 18.1667,46.1667 18.5,45.5C 22.6002,45.7633 26.6002,45.4299 30.5,44.5 Z"/></g>
<g><path style="opacity:1" fill="#eaf2f9" d="M 7.5,45.5 C 9.5,45.5 11.5,45.5 13.5,45.5C 14.3382,45.8417 14.6716,46.5084 14.5,47.5C 10.5,47.5 6.5,47.5 2.5,47.5C 4.16667,46.8333 5.83333,46.1667 7.5,45.5 Z"/></g>
</svg>
